<?xml version="1.0" encoding="UTF-8"?>
<svg xmlns="http://www.w3.org/2000/svg" xmlns:xlink="http://www.w3.org/1999/xlink" viewBox="0 0 2276.19 2083.14">
  <defs>
    <style>
      .cls-1, .cls-2, .cls-3 {
        letter-spacing: -.02em;
      }

      .cls-4 {
        letter-spacing: -.05em;
      }

      .cls-5 {
        letter-spacing: -.04em;
      }

      .cls-6 {
        filter: url(#drop-shadow-2);
      }

      .cls-7 {
        letter-spacing: 0em;
      }

      .cls-8 {
        letter-spacing: -.02em;
      }

      .cls-9 {
        letter-spacing: -.04em;
      }

      .cls-10 {
        stroke-linecap: round;
      }

      .cls-10, .cls-11 {
        fill: none;
      }

      .cls-10, .cls-12 {
        stroke: #000;
        stroke-miterlimit: 10;
        stroke-width: 2px;
      }

      .cls-13 {
        letter-spacing: -.11em;
      }

      .cls-14 {
        fill: #fff;
      }

      .cls-15 {
        letter-spacing: -.1em;
      }

      .cls-16 {
        letter-spacing: -.03em;
      }

      .cls-17 {
        letter-spacing: -.02em;
      }

      .cls-18 {
        letter-spacing: -.08em;
      }

      .cls-19 {
        letter-spacing: -.02em;
      }

      .cls-20, .cls-21, .cls-2, .cls-22, .cls-23, .cls-3, .cls-24 {
        font-size: 22px;
      }

      .cls-20, .cls-21, .cls-2, .cls-22, .cls-25, .cls-3 {
        font-family: AktivGrotesk-Regular, 'Aktiv Grotesk';
      }

      .cls-21, .cls-2, .cls-22, .cls-25, .cls-24 {
        fill: #231f20;
      }

      .cls-26 {
        letter-spacing: -.03em;
      }

      .cls-22, .cls-27 {
        letter-spacing: -.02em;
      }

      .cls-28 {
        letter-spacing: -.02em;
      }

      .cls-29 {
        letter-spacing: -.02em;
      }

      .cls-30 {
        letter-spacing: 0em;
      }

      .cls-23, .cls-24 {
        font-family: MyriadPro-Regular, 'Myriad Pro';
      }

      .cls-31 {
        letter-spacing: -.09em;
      }

      .cls-32 {
        letter-spacing: -.02em;
      }

      .cls-33 {
        letter-spacing: -.08em;
      }

      .cls-34 {
        letter-spacing: -.02em;
      }

      .cls-25 {
        font-size: 42px;
      }

      .cls-35 {
        letter-spacing: 0em;
      }

      .cls-36 {
        fill: #fefefe;
      }

      .cls-37 {
        letter-spacing: -.04em;
      }

      .cls-38 {
        letter-spacing: -.03em;
      }

      .cls-39 {
        letter-spacing: -.05em;
      }

      .cls-40 {
        letter-spacing: -.04em;
      }

      .cls-41 {
        letter-spacing: -.04em;
      }

      .cls-42 {
        letter-spacing: -.04em;
      }

      .cls-43 {
        letter-spacing: -.04em;
      }

      .cls-12 {
        filter: url(#drop-shadow-1);
      }

      .cls-44 {
        letter-spacing: -.03em;
      }
    </style>
    <filter id="drop-shadow-1" x="1149.03" y="94.38" width="1037" height="1417.88" filterUnits="userSpaceOnUse">
      <feOffset dx="-9" dy="18"/>
      <feGaussianBlur result="blur" stdDeviation="5"/>
      <feFlood flood-color="#000" flood-opacity=".49"/>
      <feComposite in2="blur" operator="in"/>
      <feComposite in="SourceGraphic"/>
    </filter>
    <filter id="drop-shadow-2" x="483.03" y="93.68" width="1715" height="1945.58" filterUnits="userSpaceOnUse">
      <feOffset dx="-9" dy="18"/>
      <feGaussianBlur result="blur-2" stdDeviation="5"/>
      <feFlood flood-color="#000" flood-opacity=".49"/>
      <feComposite in2="blur-2" operator="in"/>
      <feComposite in="SourceGraphic"/>
    </filter>
  </defs>
  <g id="Map">
    <path class="cls-36" d="M0,0h2273.64c3.69,6.2,1.94,17.84,1.94,25.02v1630.94s0,324.49,0,324.49c0,14.96,1.76,93.38-.69,100.33-.31.87-.78,1.56-1.26,2.35H0V0Z"/>
    <path class="cls-12" d="M2096.33,1474.69l2.05-10.89v-6.36s-1-2.64-2.05-4.77-2.37-8.75-2.37-8.75v-5.74s4.86-12.81,4.42-14.58.5-3.98.03-6.63.74-6.18.14-8.83c-.61-2.65.17-9.72.17-9.72,0,0-3.09-5.74-2.38-7.07.71-1.33,2.38-19.88,2.38-19.88v-14.15l1.87-15.45,9.28-3.98,13.25-4.42,11.93-1.77s7.95,4.84,10.16,4.18,16.79,4.65,16.79,4.65l3.98,12.81v3.96l3.09,1.78,5.3-1.78,3.53-5.73V97.16l-1002.74-.78,15.15,608.93,906.03,769.37Z"/>
    <g class="cls-6">
      <path class="cls-11" d="M827.66,1079.26s-.02.02-.02.02c-.09.14-.16.3-.22.48.06-.18.14-.35.24-.5Z"/>
      <path class="cls-11" d="M828.03,1000.05c-.83-.45-1.69-.87-2.62-1.3,1.02.51,1.96.96,2.62,1.3Z"/>
      <path class="cls-11" d="M839.36,1075.4c-.53.42-.99.66-1.37.99.45-.25.9-.57,1.37-.99Z"/>
      <path class="cls-11" d="M831.34,1077.49s0,0-.01,0c-.02,0-.04,0-.07.01.03,0,.05,0,.08-.01Z"/>
      <path class="cls-11" d="M849.75,1026.93c.08-.14.19-.27.31-.39-.73.65-.35.37-.31.39Z"/>
      <path class="cls-11" d="M845.43,1014.37c.16.09.34.19.55.29-.2-.09-.38-.19-.55-.29Z"/>
      <path class="cls-11" d="M850.28,1026.35s-.03.03-.05.05c.07-.06.15-.12.24-.17-.07.04-.14.08-.19.13Z"/>
      <path class="cls-11" d="M845.36,1014.32c-.4-.25-.73-.54-.96-.88,0,0,.14.38.96.88Z"/>
      <path class="cls-11" d="M828.65,1078.47c.91-.52,1.76-.8,2.58-.96-1.08.14-1.96.56-2.58.96Z"/>
      <path class="cls-11" d="M849.69,1027.04s0-.02.01-.02c0,0,0,0,0,0,0,0,0,.01,0,.02Z"/>
      <path class="cls-11" d="M827.28,1081.6c.01.14.02.29.04.44-.02-.15-.03-.29-.04-.44Z"/>
      <path class="cls-11" d="M837.97,1076.4c-1.06.58-2.42.76-3.83.88,1.28-.05,2.53-.16,3.83-.88Z"/>
      <path class="cls-11" d="M827.29,1080.37c.02-.17.05-.33.09-.48-.04.15-.07.31-.09.48Z"/>
      <path class="cls-11" d="M851.58,1115.64c.12.07.25.15.38.23-.18-.11-.31-.19-.38-.23Z"/>
      <path class="cls-11" d="M827.25,1081.22c0-.22,0-.42.01-.62-.01.2-.02.4-.01.62Z"/>
      <path class="cls-11" d="M827.54,1083.46c.04.18.07.35.11.52-.04-.18-.08-.35-.11-.52Z"/>
      <path class="cls-11" d="M850.8,1026.05c-.11.05-.21.1-.3.16.09-.05.2-.1.3-.16Z"/>
      <path class="cls-11" d="M827.36,1082.41c.04.25.08.51.13.77-.05-.26-.09-.52-.13-.77Z"/>
      <path class="cls-11" d="M806.96,1018.33s-.02-.02-.03-.02c.02.02.03.03.05.05,0,0-.02-.02-.02-.03Z"/>
      <path class="cls-11" d="M818.65,1081.07s.06.08.09.13c-.03-.04-.06-.08-.09-.13Z"/>
      <path class="cls-11" d="M801.26,986.91s0-.02,0-.02c.12-.56.14-1.42.1-2.41.01.76,0,1.52-.08,2.24,0,.06-.02.13-.03.2Z"/>
      <path class="cls-11" d="M852.31,1058.52s.02.04.05.11c-1.04-2.34-2-4.65-2.81-6.94,1.35,4.02,2.76,6.83,2.76,6.83Z"/>
      <path class="cls-11" d="M815.65,976.01c-.12-.1-.25-.2-.39-.29.12.1.24.19.39.29Z"/>
      <path class="cls-11" d="M2121.48,1793.69c.24-.06.5-.11.74-.17.03-.1.06-.2.1-.3,0,0-.01,0-.02,0l-.82.47Z"/>
      <path class="cls-11" d="M2146.79,1935.92c.1,0,.19.02.25.03,0-.02,0-.04,0-.06l-.25.03Z"/>
      <path class="cls-11" d="M815.07,1052c.16-.7.41-2.85.64-4.99-.19,1.6-.41,3.27-.64,4.99Z"/>
      <path class="cls-11" d="M819.53,1082.26s.06.08.09.12c-.03-.04-.06-.08-.09-.12Z"/>
      <path class="cls-11" d="M842.61,1072.76c-.59.14-1.08.29-1.36.46.45-.18.9-.33,1.36-.46Z"/>
      <path class="cls-11" d="M854.3,1069.61c.02-1,.02-1.96-.02-2.9.03.97.03,2,.02,2.9Z"/>
      <path class="cls-11" d="M846.52,1072.14c.14,0,.28-.01.41-.02h-.22s-.07,0-.19.02Z"/>
      <path class="cls-11" d="M849.48,1027.52c-2.41,5.54-2.43,11.16-2.37,11.33,0,.31,0,.62.02.93-.09-3.61.47-7.32,1.98-11.23.15-.4.26-.73.37-1.03Z"/>
      <path class="cls-11" d="M854.22,1072.35s0-.08,0-.12c0,0,0,0,0,0l-3.24-.05c1.08.06,2.17.13,3.24.17Z"/>
      <path class="cls-11" d="M830.65,1082.12c1.06-1.04,2.92-2.56,5.26-3.22,3.72-1.06,12.59-3.12,12.59-3.12,0,0,3.82-1.25,4.93-2.46.11-.11.2-.23.3-.34-.32.26-.68.5-1.09.74-6.54,3.77-17.02,2.52-21.99,8.41Z"/>
      <path class="cls-11" d="M1878.51,1813.02c.13,1.05.23,2.1.34,3.15l-.04-.47-.31-2.69Z"/>
      <path class="cls-11" d="M894,1111.09c-.24.14-.43.31-.53.53-.54,1.13-.27,5.03-.27,5.03,0,0,.03.68-.1,1.2l.14.04c1.27-2.58-.34-5.27.76-6.79Z"/>
      <path class="cls-11" d="M1901.81,1972.33l-13.62,2.38c8.42-1.45,26.04-4.32,48.34-7.88l-34.71,5.5Z"/>
      <path class="cls-11" d="M888.21,1112.95c-.51,1.02-.83,3.5-.97,4.73l.45.19c.4-2.32.23-4.79,1.7-6.43-.23.14-.69.52-1.18,1.51Z"/>
      <path class="cls-11" d="M1883.13,1877.19c0,.24.02.48.02.72v-.51s-.02-.21-.02-.21Z"/>
      <path class="cls-11" d="M935.07,1130.46c-7-4.98-10.32-16.12-16.96-21.6-10.08-8.32-21.56-10.79-32.32-17.25-5.42-3.25-10.25-8.91-14.66-13.38-3.31-3.36-9.41-11.31-14.32-11.61-.05.19-.09.39-.14.57.75.13,2.52.61,4.76,2.34,2.97,2.29,15.68,16.21,18.28,18.39s.8.85,4.45,3.51c3.65,2.66,24.45,11.31,27.79,13.93,7.55,4.37,8.38,7.3,8.96,7.49s10.45,15.63,12.2,16.98c1.74,1.36,2.33,1.69,2.33,1.69,0,0,5.61,1.91,6.59,2.34.98.43,2.42,1.26,2.42,1.26l.09,1.31.55-.16-.12-1.68c-3.02-2.11-7.34-2.32-9.91-4.15Z"/>
      <path class="cls-11" d="M883.46,1113.29c.1-.4.29-.78.48-1.16l-.22-.08s-1.1,1.53-.89,3.88c.18,2.05,2.9,6.04,3.59,7.01.23-.1.45-.19.68-.31-.29-.32-.6-.63-.87-.96-1.72-2.11-3.46-5.55-2.77-8.38Z"/>
      <path class="cls-11" d="M857.8,1119.83s-.01,0-.02-.01c.48.39.91.77,1.26,1.13-.2-.23-.4-.47-1.24-1.11Z"/>
      <path class="cls-11" d="M859.35,1121.27s-.02-.02-.03-.03c.16.18.3.36.42.53-.08-.16-.21-.33-.39-.49Z"/>
      <path class="cls-11" d="M859.42,1020.24c-.18-.42-.45-.83-.85-1.25.5.6.74,1.11.85,1.25Z"/>
      <path class="cls-11" d="M829.1,1089.94c.15.82.21,1.44.23,1.89-.01-.57-.09-1.2-.23-1.89Z"/>
      <path class="cls-11" d="M2121.41,1793.7c-.29.05-1.71.32-3.55.76,1.21-.25,2.4-.49,3.55-.76Z"/>
      <path class="cls-11" d="M2133.7,1874.92c1.46-.18,3.03-.75,4.66-1.21-1.86.39-3.28.93-4.66,1.21Z"/>
      <path class="cls-11" d="M2117.18,1840.26c.13-1.8.14-3.56-.06-5.26.11,1.65.12,3.43.06,5.26Z"/>
      <path class="cls-11" d="M2123.56,1874.82c1.48-1.01,1.34-.91,1.82-1.21.47-.29.82-.49,1.06-.61-.03-.02-.06-.04-.1-.06-1.13.58-1.99,1.1-2.96,1.79.05.08.11.14.18.09Z"/>
      <path class="cls-11" d="M2117.64,1939.24h-.02s.02,0,.03,0h-.01Z"/>
      <path class="cls-11" d="M829.33,1092.35s0-.08,0-.12c0,.04,0,.08,0,.12Z"/>
      <path class="cls-11" d="M811.87,974.51c.08.02.14.03.22.05-.07-.01-.14-.03-.22-.05Z"/>
      <path class="cls-11" d="M808.72,974.22c-.07,0-.14,0-.21,0,.07,0,.14,0,.21,0Z"/>
      <path class="cls-11" d="M808.52,1020.83s-.02-.06-.02-.06c0,0-.02-.03-.05-.08.02.05.04.09.06.14Z"/>
      <path class="cls-11" d="M816.82,987.17c.01.09.03.17.04.26-.32-2.97.13-6.01.46-8.99,0,0-.88,5.51-.5,8.73Z"/>
      <path class="cls-11" d="M800.18,974.61c.18,1.28.41,2.65.62,4.04-.31-2.25-.62-4.04-.62-4.04Z"/>
      <path class="cls-11" d="M838.1,1007.37c.15.45.59.75,1.16.95-.74-.3-1.25-.76-1.33-1.54-.04-.46.41-2.55.52-3.06,0,0-.91,3.01-.35,3.64Z"/>
      <path class="cls-11" d="M820.44,995.71s.08.07.12.11c-.06-.06-.12-.12-.18-.17.02.03.05.05.06.07Z"/>
      <path class="cls-11" d="M821.31,1084.56c.19.24.39.48.58.72l-.58-.72Z"/>
      <path class="cls-11" d="M829.06,1089.7c-.01-.05-.02-.1-.03-.15.01.05.02.1.03.15Z"/>
      <path class="cls-11" d="M814.67,1073.5c.07.28.13.57.22.83.18.57.44,1.17.73,1.78-.39-.85-.7-1.73-.95-2.61Z"/>
      <path class="cls-11" d="M814.51,1072.89c-.03-.12-.05-.23-.08-.35.02.12.05.23.08.35Z"/>
      <path class="cls-11" d="M799.74,1012.11c.34.5.74.96,1.2,1.39.6.55,1.15,1.01,1.68,1.42-1.2-1-2.32-2.03-2.88-2.81Z"/>
      <path class="cls-11" d="M813.95,1063.04c.01-.23.03-.49.04-.78-.02.26-.03.52-.04.78Z"/>
      <path class="cls-11" d="M810.3,1026.84s-.01-.03-.02-.04c0,.01.01.03.02.04Z"/>
      <path class="cls-11" d="M810.1,1026.3c-.08-.24-.16-.5-.25-.77.07.26.16.52.25.77Z"/>
      <path class="cls-11" d="M813.08,1033s-.02-.03-.04-.08c.01.03.03.07.04.1,0,0,0,0,0-.01h0Z"/>
      <path d="M2181.27,1599.05c-2.62-.81-5.62-1.02-8.06-2.28-6.45-3.32-11.12-10.53-17.58-14.12-3.1-1.72-5.83-.12-9.07-1.93-1.79-4.03-1.04-9.79-1.01-14.18-7.48-10.04-14.78-23.94-17.82-36.1-4.74-3.38-9.51-6.72-14.31-10.03-4.13-8.37-7.55-14.3-14.78-20.39-.81-8.44-1.7-16.87-2.31-25.33-30.24-27.93-63-53.87-94.35-80.62l-196.38-167.31-613.11-522.25c.21-19.89-.96-40.12-1.58-60.03l-2.11-83.26c-2.61-104.09-6.02-208.29-7.28-312.4l-3.67-154.85c-49.22-1.11-98.86,2.53-148.13,2.78-84.48.44-169.03-1.66-253.52-1.92-29.28-.16-58.57-.17-87.85-.03-21.97.25-43.88,1.16-65.86,1.04-26.06-.15-52.15-1.26-78.2-2.17-.18,5.57.34,11.12.75,16.67-.48,3.78-.83,7.81-1.85,11.48-1.98,7.08-7.43,14.91-2.08,21.87,2.28,2.97,8.01,5.1,11.4,6.71,8.93,45.46,15.59,50.14,4.75,96.98-1.33,5.74-2.44,15.78-5.6,20.4-.45.66-1.54,1.6-2,2.08-2.14,2.28-2.67,4.98-2.42,8.03.63,7.69,7.39,13.11,7.63,21.17.47,16.22-24.97,58.12-32.66,74.8-5.61,12.16-10.01,25.07-14.48,37.69,4.94,8.64,7.05,16,8.8,25.74l-3.11,11.37c8.58,9.03,17.37,19.66,27.02,27.49,3.35,2.72,9.49,3.54,12.11,6.74,3.07,3.75,3.62,15.02,6.94,16.42,8.93,3.76,19.53,21.51,22.91,30.48.34.91.67,1.82.99,2.73,2.3,1.65,4.74,3.24,6.95,5.01,1.62,7.74,2.53,15.61,3.57,23.45l5.51,6.92c.23,9.82.88,18.43,3.54,27.9-11,27.77-10.7,47.32,1.25,75.01,5.57,12.91,9.16,22.07,7.98,36.45l-.08.92c-2.05,2.88-6.02,7.12-6.35,10.63,6.07,17.31,33.69,38.48,45.97,52.91,7.11,8.35,10.41,19.61,18.03,27.64,9.21,9.71,22.52,15.06,30.98,25.01,3.21,3.77,5.42,8.7,8.01,12.93-.28,3.81-1.15,8.12.54,11.66,1.87,1.77,3.24,2.13,5.64,2.78,4.44,1.22,5.6,2.65,7.94,6.69.86,1.49,3.43,4.64,3.87,6.29,2.21,2.1,5.79,4.72,5.36,6.18-.3,1.01,1.1,5.63,1.1,5.63,0,0,.42,2.19-.39,1.38-1.93-1.93-8.07-5.52-8.01-4.97.54,4.65.95,4.23,2.96,8.63l-.35,1.19c-2.03,6.71-11.41,26.46-10.36,31.71,2.65,1.82,4.8,2.4,8.07,1.71.32-.07.63-.18.95-.28l.23-1.12c.58-2.74,1.56-15.34,3.51-13.13,6.63,7.51,10.74,11.02,15.61,12.81,2.09,2.32,4.78,3.03,6.48,5.65,2.2,3.4,10.69,14.79,14.7,15.27,2.38.29,4.77-.56,7.05-1.15,8.35,1.55,19.89,21.63,29.6,17.65,1.2-2.25,2.04-4.31,1.25-6.95-.62-2.07-2.26-4.14-3.45-5.93l.48-1c3.18,2.23,7.01,5.83,10.96,5.64.48-2.08.67-2.52-.54-4.45-2.29-3.66-10.63-8.66-10.93-12.42,1.32-.78,1.84-.66,2.28-2.19.98-3.39,2.2-5.89,4.16-8.8-.84-3-3.06-4.33-5.31-6.43.27-4.6-.55-13.73,2.68-17.08,3.14-3.26,7.09-4.15,10.3-8.03,3.4,1.67,7.19,3.31,10.23,5.59,2.68,2.01,8.23,9.48,10.8,10.33.64.21,3.22-.38,4.04-.48.03,2.46,0,3.14-1.78,5.11-3.95,4.39-14.92,4.81-17.02,7.02-2.37,2.5-1.6,6.68-5.05,9.24-2.07-.25-4.08-.5-6.17-.52-.03,3.15,3.27,7.32,5.49,9.44,2.41,2.3,5.09,3,8.24,3.76,2,.48,3.28.88,4.54,2.68,1.52,2.18,2.06,4.34,1.64,6.97-.95,5.86-7.07,8.91-3.65,15.21,3.12,1.64,11.79,4.87,12.94,8.12,1.04,2.94-.08,4.48,2.11,7.42,2.15,1.2,3.33,1.09,5.76.88,6.24,4.31,7.74,21.12,9.62,28.25.7,2.65,2.2,5.58,2.61,8.23.09.55.01,1.12.02,1.68-.43.18-.86.38-1.3.53-5.77,2.05-15.09-10.61-20.14-13.22-4.77-2.47-10.66-3.49-15.69-5.73-1.01-1.09-1.47-1.93-1.92-3.36-2.38-7.67-2.04-14.49,1.57-21.67.16-.32.33-.65.5-.97-.82-1.34-1.66-2.54-2.69-3.72l-1.08-1.24c-.3-3.35-.38-7.56-2.42-10.42-1.46-2.06-3.11-2.48-5.52-2.54-4.06-.1-15.36,5.77-17.94,8.93-3.88,4.76,5.92,10.67,6.68,17.61,1.15,10.57-5.38,20.74-3.8,30.89.83,5.28,3.45,5.65,6.94,8.69,4.72,4.12,2.86,9.51,3.04,14.96.01.3.03.6.05.9-.57.08,5.18,4.34,6.86,5.57.1,1.83.58,3.65,1.61,6.43-5.97,45.67,5.69,33.57,27.18,65.8-.09,3.51,6.54,6.33,7.63,4.7.19,1.65-.8.58-.09,3.07,3.7,1.96,9.2,6.7,13.08,8.12,12.29,4.53,24.28-4.77,32.22-.65,2.22,1.15,4.52,3.43,6.72,6.29.93,1.42,2.06,3.1,3.24,4.69,4.08,6.5,7.46,14.17,8.83,18.8-2.41,10.65-3.78,33.62-12.56,40.73-3.44-.36-8.22-5.07-11.12-7.22-2.13,4.59-4.7,9.02-7.1,13.47,1.73,1.41,3.52,2.8,5.14,4.33,1.78,1.68,2.39,2.45,2.46,4.88-1.64,1.04-2.39,1.68-3.34,3.37,1.5,10.07,7.47,19.1,9.09,28.99.68,4.18-1.13,10.63.29,14.28,3.83,9.77,28.37,22.76,36.86,31.96,7.3,7.91,11.88,17.15,16.47,26.78,3.8,1.41,7.42,3.09,11.08,4.85,3.24,9.64,6.15,21.67,13.44,29.07,4.01,4.08,8.96,7.6,12.2,12.36,5.21,7.65,7.63,17.57,10.97,26.18,6.68,2.13,13.33,4.38,19.93,6.74,9.1,12.57,16.49,23.66,27.58,34.81l6.34.9c1.95.27,4,.43,5.89,1.02,3.25,1.01,6.26,3.69,7.82,6.69,4.32,8.3-1.45,22.48-3.83,31.02,3.4,6.42,7.43,10.17,13.46,14.19,6.81,4.53,9.94,5.36,17.69,3.75,4.71,1.05,8.51,4.73,12.28,7.62,1.63,11.16,3.7,24.49-3.34,34.23-1.55,2.14-2.31,3.21-2.66,5.83,1.08,0,1.64-.87,2.44-1.54l.8.34c-.51,2.51-1.11,4.72-.52,7.28,3.4,3.19,6.27,6.58,9.18,10.19l-4.64,19.16c2.38,3.55,4.19,7.62,6.15,11.42-1.93,7.17-6.33,15.45-6.63,22.73-.13,3.19.79,4.6,2.82,6.94,3.3,1.61,5.99,1.2,9.58.92,9.46,5.76,12.99,13.72,20.06,21.76,10.47.78,21.83-4.26,32.46-5.14,9.99-.83,36.63-.31,45.64,2.76,7.03,2.39,13.83,7.06,21.09,8.56,1.81.37,2.58.39,4.34-.42,9.27-4.25,13.47,3.45,22.31,2.1,6.52-5.76,15.27-4.02,23.49-3.9,14.54,7.92,31.47,22.41,46.29,27.74,4.05,7.52,7.51,15.47,11.2,23.18,5.35,3.61,10.73,7.18,16.14,10.71.58-.01,1.15,0,1.73-.02,11.29-.4,17.31,7.24,27.31,9.94,5.16,1.38,11.67,1.23,17.02,1.65l9.05,7.21c3.8-4.51,7.08-6.51,12.98-7.45,7.98-1.27,28.07-4.33,34.4.47,9.13,6.93,21.58,27.76,22.6,39.04.32,3.54-2.99,6.54-5.12,9.16-.25,2.12.65,5.09,2.07,6.74,1.87,2.18,4.06,1.63,6.67,1.62,5.67-.01,8.4,4.87,13.5,6.3,1.55.43,2.04-.31,3.34-1.05,6.76-13.65,8.51-2.41,15.77-6.65.04-1.94.05-3.1,1.05-4.79,11.19-.36,27.99,20.72,37.55,26.92,9.24,5.99,20.41,8.52,29.36,15.16,5.1,3.78,8.05,10.99,12.91,15.47l3.88.57c1.06.15,2.11.24,3.15.52,5.29,1.39,10.1,10.38,14.21,14.03,4.37,3.9,9.94,6.37,14.45,10.14,10.04,8.39,22.31,25.23,29.2,36.53,7,11.49,20.97,42.21,17.77,55.3-1.69,1.49-2.7,2.53-3.66,4.58.23,2.88.67,4.07,2.29,6.45,5.35,7.86,2.57,19.07,6.1,27.92l1.21.45,1.59-2.62c2.77-.5,5.27-.31,7.65,1.28,7.95,5.32,9.29,21.06,11.06,29.85,29.18-6.35,59.35-9.79,88.82-14.72l232.97-37.65c16.45-2.68,102.84-12.53,113.83-17.66-.07-.01-.15-.02-.25-.03l.25-.03s0,.04,0,.06c0-.02.01-.04.02-.06l.45-.05,2.21-8.12c-.04-.11-.07-.23-.1-.35.79-2.65,1.53-5.1,1.85-6.03,1.64-4.79,4.64-7.79,7.99-11.45.45-8.54-1.61-16.55-3.18-24.89-3.8-3.54-5.71-5.8-7.44-10.78-.15-.41-.27-.82-.41-1.24-8.94-1.53-17.97.49-26.86-2.03-.37-.33-.71-.71-1.03-1.1-.44-.88-.88-1.71-1.37-2.35-.07-.09-.13-.16-.2-.24-4.44-9.88-.27-29.65-1.72-39.48-1.9-3.28-6.07-5.47-9.15-7.59l4.4-7.83-4.96-11.89c0-.37.01-.73.06-1.1,0,0,0-.01,0-.02l14-3.92c.19-.64.4-1.28.62-1.91-.24.06-.49.11-.74.17l.82-.47s.01,0,.02,0c4.01-11.36,12.5-20.92,14.19-27.43,1.79-6.89-.4-16.99.27-24.4.61-.7,1.67-1.89,2.18-2.6,4.02-5.54-4.62-22.86-5.68-29.89-.54-3.55.77-4.27,2.75-6.99.77-4.26-4.32-8.67-5.03-12.95-.62-3.7,7.57-8.39,9.68-11.15,5.02-6.59,1.25-15.63,5.75-21.88,4.22-5.85,22.58-15.05,29.11-21,4.08-3.71,7.44-10.27,10.47-14.96,1.83-.7,3.55-1.44,5.29-2.36.08-.3.2-.59.24-.89.71-5.24-7.14-13.51-10.27-17.67ZM801.37,984.47c.04,1,.02,1.85-.1,2.41,0,0,0,.02,0,.02,0-.06.02-.13.03-.2.08-.72.09-1.48.08-2.24ZM806.96,1018.33s.02.02.02.03c-.02-.02-.03-.03-.05-.05,0,0,.02.02.03.02ZM815.26,975.71c.14.09.27.19.39.29-.15-.1-.27-.19-.39-.29ZM815.71,1047.01c-.23,2.14-.47,4.29-.64,4.99.22-1.72.44-3.39.64-4.99ZM818.75,1081.2s-.06-.08-.09-.13c.03.04.06.08.09.13ZM819.61,1082.38s-.06-.08-.09-.12c.03.04.06.08.09.12ZM847.13,1039.78c-.01-.31-.02-.62-.02-.93-.06-.16-.04-5.78,2.37-11.33-.11.3-.21.63-.37,1.03-1.51,3.92-2.07,7.62-1.98,11.23ZM854.23,1072.23s0,0,0,0c0,.04,0,.08,0,.12-1.07-.04-2.16-.11-3.24-.17l3.24.05ZM852.64,1073.72c.41-.24.77-.48,1.09-.74-.1.11-.2.23-.3.34-1.11,1.21-4.93,2.46-4.93,2.46,0,0-8.87,2.06-12.59,3.12-2.34.67-4.2,2.19-5.26,3.22,4.97-5.88,15.45-4.64,21.99-8.41ZM841.25,1073.23c.27-.17.77-.32,1.36-.46-.46.13-.91.28-1.36.46ZM846.52,1072.14c.12-.01.19-.02.19-.02h.22c-.14,0-.28.01-.41.02ZM854.3,1069.61c.01-.9.01-1.92-.02-2.9.04.94.04,1.9.02,2.9ZM852.31,1058.52s-1.41-2.81-2.76-6.83c.81,2.29,1.77,4.6,2.81,6.94-.03-.07-.05-.11-.05-.11ZM849.69,1027.04s0-.01,0-.02c0,0,0,0,0,0,0,0,0,.02-.01.02ZM849.75,1026.93s-.42.26.31-.39c-.13.12-.23.25-.31.39ZM850.28,1026.35s.12-.08.19-.13c-.09.06-.16.11-.24.17.02-.02.03-.03.05-.05ZM845.36,1014.32c-.82-.5-.96-.88-.96-.88.23.34.56.63.96.88ZM845.98,1014.66c-.21-.1-.39-.2-.55-.29.17.1.36.2.55.29ZM837.99,1076.39c.38-.32.83-.57,1.37-.99-.46.42-.92.74-1.37.99ZM831.34,1077.49s-.05,0-.08.01c.02,0,.04,0,.07-.01,0,0,0,0,.01,0ZM825.41,998.75c.93.42,1.79.85,2.62,1.3-.66-.34-1.6-.79-2.62-1.3ZM827.66,1079.26c-.1.15-.18.32-.24.5.06-.18.13-.34.22-.48,0,0,.01-.02.02-.02ZM827.39,1079.89c-.04.15-.07.31-.09.48.02-.17.05-.33.09-.48ZM827.27,1080.6c-.01.2-.02.4-.01.62,0-.21,0-.42.01-.62ZM827.66,1083.98c-.04-.17-.08-.35-.11-.52.03.17.07.35.11.52ZM827.49,1083.17c-.05-.26-.09-.51-.13-.77.04.25.08.5.13.77ZM827.32,1082.04c-.02-.15-.03-.29-.04-.44.01.14.02.29.04.44ZM831.22,1077.51c-.82.16-1.67.44-2.58.96.61-.4,1.49-.82,2.58-.96ZM834.14,1077.28c1.41-.11,2.77-.3,3.83-.88-1.3.72-2.55.83-3.83.88ZM851.96,1115.86c-.13-.08-.26-.15-.38-.23.07.04.2.12.38.23ZM850.5,1026.21c.09-.05.19-.11.3-.16-.11.05-.21.1-.3.16ZM858.58,1018.99c.39.41.66.82.85,1.25-.11-.13-.35-.64-.85-1.25ZM839.26,1008.32c-.57-.2-1.01-.5-1.16-.95-.55-.64.35-3.64.35-3.64-.1.51-.56,2.59-.52,3.06.08.78.59,1.24,1.33,1.54ZM820.56,995.82s-.08-.07-.12-.11c-.01-.02-.04-.04-.06-.07.06.06.12.12.18.17ZM821.89,1085.29c-.19-.24-.39-.48-.58-.72l.58.72ZM816.85,987.43c-.01-.09-.03-.17-.04-.26-.38-3.22.5-8.73.5-8.73-.34,2.97-.79,6.02-.46,8.99ZM812.08,974.56c-.07-.02-.14-.03-.22-.05.07.01.14.03.22.05ZM808.72,974.22c-.07,0-.14,0-.21,0,.07,0,.14,0,.21,0ZM808.52,1020.83s-.04-.1-.06-.14c.03.05.05.08.05.08,0,0,0,.02.02.06ZM800.8,978.65c-.21-1.39-.44-2.75-.62-4.04,0,0,.31,1.79.62,4.04ZM799.74,1012.11c.56.78,1.67,1.81,2.88,2.81-.52-.41-1.08-.88-1.68-1.42-.46-.42-.86-.89-1.2-1.39ZM809.86,1025.52c.09.28.17.54.25.77-.09-.26-.17-.51-.25-.77ZM810.28,1026.8s.01.03.02.04c0-.01-.01-.03-.02-.04ZM813.04,1032.91s.04.08.04.08h0s0,0,0,.01c-.01-.03-.03-.07-.04-.1ZM814,1062.25c-.02.3-.03.56-.04.78.01-.26.03-.52.04-.78ZM814.67,1073.5c.25.89.55,1.77.95,2.61-.29-.61-.54-1.21-.73-1.78-.08-.27-.15-.56-.22-.83ZM814.43,1072.54c.03.12.05.23.08.35-.03-.12-.06-.23-.08-.35ZM829.03,1089.55c.01.05.02.1.03.15,0-.05-.02-.1-.03-.15ZM829.1,1089.94c.13.69.21,1.33.23,1.89-.02-.46-.08-1.08-.23-1.89ZM829.33,1092.35s0-.08,0-.12c0,.04,0,.08,0,.12ZM857.78,1119.81s.01,0,.02.01c.84.64,1.04.88,1.24,1.11-.35-.36-.78-.74-1.26-1.13ZM859.31,1121.23s.02.02.03.03c.18.17.3.34.39.49-.11-.17-.26-.35-.42-.53ZM886.41,1122.93c-.68-.97-3.41-4.96-3.59-7.01-.21-2.35.89-3.88.89-3.88l.22.08c-.19.38-.38.76-.48,1.16-.69,2.83,1.04,6.27,2.77,8.38.27.33.58.64.87.96-.22.11-.45.2-.68.31ZM887.24,1117.68c.14-1.23.46-3.7.97-4.73.49-.99.96-1.37,1.18-1.51-1.48,1.64-1.31,4.1-1.7,6.43l-.45-.19ZM893.24,1117.89l-.14-.04c.13-.52.1-1.2.1-1.2,0,0-.26-3.9.27-5.03.1-.22.29-.39.53-.53-1.11,1.52.5,4.21-.76,6.79ZM944.55,1136.44l-.09-1.31s-1.44-.83-2.42-1.26c-.98-.43-6.59-2.34-6.59-2.34,0,0-.59-.33-2.33-1.69-1.74-1.36-11.62-16.79-12.2-16.98s-1.41-3.12-8.96-7.49c-3.35-2.62-24.14-11.27-27.79-13.93-3.65-2.66-1.85-1.34-4.45-3.51s-15.31-16.1-18.28-18.39c-2.24-1.73-4.01-2.2-4.76-2.34.05-.19.09-.38.14-.57,4.91.3,11.01,8.25,14.32,11.61,4.41,4.47,9.25,10.13,14.66,13.38,10.76,6.46,22.24,8.93,32.32,17.25,6.64,5.48,9.96,16.62,16.96,21.6,2.57,1.83,6.89,2.04,9.91,4.15l.12,1.68-.55.16ZM1878.51,1813.02l.31,2.69.04.47c-.11-1.05-.22-2.1-.34-3.15ZM1883.13,1877.19l.02.21v.51c0-.24,0-.48-.02-.72ZM1901.81,1972.33l34.71-5.5c-22.29,3.56-39.91,6.43-48.34,7.88l13.62-2.38ZM2138.36,1873.72c-1.63.45-3.2,1.02-4.66,1.21,1.37-.28,2.8-.81,4.66-1.21ZM2126.34,1872.94s.06.04.1.06c-.24.12-.59.31-1.06.61-.48.3-.34.21-1.82,1.21-.07.05-.12-.01-.18-.09.97-.7,1.83-1.21,2.96-1.79ZM2117.64,1939.24h.01s-.02,0-.03,0h.02ZM2117.18,1840.26c.06-1.84.05-3.61-.06-5.26.2,1.7.19,3.46.06,5.26ZM2117.87,1794.46c1.84-.44,3.26-.7,3.55-.76-1.15.26-2.34.51-3.55.76Z"/>
      <path d="M2123.77,1793.11c-.48.03-.97.08-1.45.11-.04.1-.06.2-.1.3.53-.13,1.05-.27,1.55-.42Z"/>
    </g>
    <path class="cls-14" d="M2096.33,1474.69l2.05-10.89v-6.36s-1-2.64-2.05-4.77-2.37-8.75-2.37-8.75v-5.74s4.86-12.81,4.42-14.58.5-3.98.03-6.63.74-6.18.14-8.83c-.61-2.65.17-9.72.17-9.72,0,0-3.09-5.74-2.38-7.07.71-1.33,2.38-19.88,2.38-19.88v-14.15l1.87-15.45,9.28-3.98,13.25-4.42,11.93-1.77s7.95,4.84,10.16,4.18,16.79,4.65,16.79,4.65l3.98,12.81v3.96l3.09,1.78,5.3-1.78,3.53-5.73V97.16l-999.14.78,15.24,606.44,902.35,770.3Z"/>
    <path class="cls-36" d="M637.6,118.15c11.16-1.9,6.39-12.91,11.98-19.34,1.79-.31,3.44-.47,5.27-.54,53.08-2.06,106.25-.66,159.35-.34,45.91.28,92.18-.62,138.04.7,2.57.07,3.65.39,5.51,2.11l.05,4.48c-1.71,5.18,1.26,144.22,2.36,156.89-12.07,1.82-150.65,2.51-156.06.62-.89-.31-1.58-1.05-2.37-1.57-.3-.55-.57-1.11-.81-1.68-.24-.57-.46-1.16-.65-1.75-.19-.59-.35-1.2-.48-1.81-.13-.61-.23-1.22-.31-1.84-.07-.62-.12-1.24-.13-1.86-.01-.62,0-1.25.05-1.87.05-.62.12-1.24.23-1.85.11-.61.24-1.22.4-1.82.53-1.87,1.35-3.08,2.3-4.73,1.34-2.34,1.42-4.14.53-6.68-1.2-3.42-5.13-6.6-8.41-7.86-2.55-.98-4.03-.82-6.54.05-.08.42-.16.83-.25,1.25-.29,1.35-.65,2.6-1.08,3.91-2.4.95-3.95,1.02-6.48,1.01l-2.48,1.54c-.04.36-.08.73-.13,1.09-.1.78-.32,3.11-.76,3.75-2.59,3.74-14.33,11.64-18.51,14.75-4.08,3.04-6.26,3.58-11.35,4.35-4.49.67-13.54,2.52-16.51,5.9.08.37.16.73.23,1.1.69,3.85.39,6.08-.74,9.75-5.23,16.89,15.65,12.04,7.05,24.41l-1.82.67c-1.92-1.06-5.02-3.24-7.08-3.61-3.57-.64-7.51,3.68-9.36-1.03-.12-.32-.51-2.15-.57-2.43-.47-2.02-.67-3.3-2.51-4.52-8.73-5.81-16.27-3.07-25.39-5.19-3.46-.8-6.28-9.51-8.76-12.35-6.78-7.76-15.42,3.96-21.8-18.51-1.9-6.68-2.68-26.67-8.96-30.21-5.7-3.21-14.6-.78-21.08-2.66-.19-2.23.17-2.5,1.06-4.49,2.76-6.13,2.37-11.29-.12-17.45-2.81-6.96-10.7-17.2-9.48-24.86.39-.45.81-.88,1.19-1.34,6.68-8.12,1.89-24.29,3.34-34.05l-1.31-2.73-2.26.79,1.6-.9-1.03-1.72c.26-.28.52-.56.78-.85,1.62-1.82,7.8-11.89,8.8-11.78.36.04,2.06.65,2.45.78,1.68-1.14,2.21-1.82,3.01-3.68Z"/>
    <path class="cls-36" d="M1181,249.35l-3.67-154.85c-49.22-1.11-98.86,2.53-148.13,2.78-21.85.11-43.7.06-65.55-.09-.73,1.43-2.14,2.5-4.24,2.5-.99,0-1.97,0-2.96,0,.41.27.83.62,1.3,1.05l.05,4.48,2.35,1.78c-2.53,5.42,1.8,137.45,2.07,155.38,52.4-.16,104.79-.93,157.18-2.29,16.96-.36,43.73,1.47,59.09-1.38,1.11-2.93.86-5.57.73-8.62l1.78-.73Z"/>
    <path class="cls-36" d="M550.63,96.97c1.89-.15,4.37-.24,7.3-.29-2.57-.44-6.32-.95-7.3.29Z"/>
    <path class="cls-36" d="M643.18,99.03c1.51,1.52,1.81,2,2.41,4.35-.73,4.28-3.12,7.44-5.43,11.02-.29.09-.58.17-.86.28-1.34.49-2.48,1.14-3.39,2.25l1.68,1.22c11.04-1.88,6.51-12.65,11.8-19.12h-6.22Z"/>
    <path d="M543.77,94.2c26.05.92,52.14,2.02,78.2,2.17,21.98.12,43.89-.78,65.86-1.04,29.28-.14,58.57-.13,87.85.03,84.49.26,169.04,2.36,253.52,1.92,49.27-.26,98.91-3.89,148.13-2.78l3.67,154.85-1.78.73-4.07-153.7c-24.81,1.39-49.84,1.1-74.69,1.59-46.56,1.34-93.13,1.62-139.71.85-.1,2.73-.37,5.45-.6,8.18l-2.35-1.78-.05-4.48c-1.86-1.72-2.94-2.03-5.51-2.11-45.86-1.33-92.13-.42-138.04-.7-53.1-.33-106.27-1.72-159.35.34-1.83.07-3.47.23-5.27.54-5.59,6.44-.82,17.44-11.98,19.34l-1.68-1.22c.91-1.1,2.05-1.76,3.39-2.25.28-.1.57-.18.86-.28,2.31-3.58,4.7-6.74,5.43-11.02-.66-2.56-.93-2.89-2.82-4.76-14.73.27-89.34-3.72-95.82-1.07-1.31,2.94-.61,5.74-.21,8.81-1.54,1.56-1.87,2.34-2.23,4.5-.41-5.55-.93-11.1-.75-16.67Z"/>
    <path class="cls-36" d="M546.75,106.37c-.4-3.07-1.1-5.88.21-8.81,6.48-2.65,81.09,1.33,95.82,1.07,1.89,1.87,2.16,2.2,2.82,4.76-.73,4.28-3.12,7.44-5.43,11.02-.29.09-.58.17-.86.28-1.34.49-2.48,1.14-3.39,2.25-2.42,3.37-3.23.44-6.34,1.81-1.82,4.05-8.75,9.68-9.53,13.09-.8,3.49,4.93,17.99,4.69,23.57-.33,7.69-7.38,14.52-7.99,21.83-.33,4.03,2.15,2.36,4.38,4.96-.28,2.63-.97,5.34.31,7.78,1.29.57,2.92,1.17,4.03,2.03,3.5,2.72,4.31,10.33,4.42,14.39.15,5.2-1.23,10.12-4.87,13.88-3.95,1.81-10.82.84-15.21.81l.55-17c-10.2-.04-37.74,2-45.71-3.29-1.13-2.88.2-6.06,1.34-8.96.2-.51.46-.99.69-1.49-.77-3.06-2.52-3.43-5.1-5.12-2.69-9.33-3.71-28.35-8.84-35.57-2.59-3.64-12.24-4.95-12.88-9.75-1.26-9.39,10.92-23.24,6.89-33.52Z"/>
    <path class="cls-36" d="M858.96,1013.72c.33.34.66.69,1,1.02,6.22,5.97,8.08.22,11.04,11.34-3.41-.22-7.02-.71-9.27-3.64-2.08-2.71-2.52-5.45-2.77-8.72Z"/>
    <path class="cls-36" d="M1904.73,1324.55l11.53-.51c41.11,37.12,84.48,72.29,126.72,108.16,17.2,14.6,35.84,28.74,51.82,44.59.47,8.21,1,16.41,1.6,24.61,7.77,6.5,11.17,14.58,17.75,21.83,3.14,3.46,8.01,6.18,11.89,8.78,1.59,5.99,7.08,22.08,11.08,26.45,8.08,8.85,5.86,12.72,7.16,23.49,2.44,2.33,4.89.5,7.85,1.17,5.2,1.18,15.61,15.07,28.06,18.08,3.08,4.19,7.87,9.52,7.99,14.89-6.65,6.42-11.61,15.31-19.24,20.59-6.96,4.83-24.2,14.75-27.8,21.21-27.23,1.44-54.56,4.71-81.77,6.79-19.21,1.47-40.18,1.34-59.06,4.81-2.69.5-3.08.8-4.89,2.71-.18,2.27-.22,4.26-1.31,6.31-20.22,3.55-42.46,3.68-63,5.09-44.99,3.07-90.1,5.41-135,9.33-9.63.51-64.63,1.96-68.9,5.4-.46,1.92-.59,2.74-1.85,4.32-34.73,5.59-69.13-2.6-103.89.26.23,3.14.71,6.01-.53,9-11.82,5.09-3.71,6.92-8.08,13.03l-4.74.59c-2.16,2.29-1.73,3.47-1.94,6.54-1.47,1.55-1.59,1.47-3.73,1.79-5.98-2.65-12.42-7.74-16.5-12.92-1.81-2.29-2.24-3.34-1.81-6.18,2.07-1.82,3.78-3.83,5.55-5.92,1.76-.25,2.73-.5,4.2-1.52,2.76-6.86,4.17-14.54,5.88-21.73,2.54-10.75,5.3-22.1,5.8-33.15.44-9.68-1.58-19.81-2.57-29.46-2.36-23.15-5.61-46.9-5.82-70.2-.04-3.4.51-5.44,3-7.89.73-.72,1.77-1.47,2.11-2.48,1.73-5.16-4.86-117.19-5.68-131.39-.47-8.18-2.31-16.8-1.49-24.94.53-5.25,3.24-11.83.69-16.66-1.64-.48-2.55-.78-3.97-1.76,1.68-7.55,2.01-13.67,1.28-21.37,56.7-.79,113.31-5.98,169.91-9.06l91.97-5.89c14.68-1.01,29.78-.55,44.31-2.9,3.55-.57,3.45-1.19,5.42-3.89Z"/>
    <path class="cls-36" d="M1532.79,1008.64c4.08-.16,8.12-.43,12.18-.84,14.1,13.12,29.43,25.29,44.1,37.78l84.28,71.75,240.45,204.73c-.2.02-.4.05-.61.06-2.99.21-6.44.12-9.13,1.57-2.5,1.35-4.19,2.4-7.02,2.88-15.08,2.56-31.16,2.3-46.43,3.44-40.5,3.14-81.05,5.54-121.64,7.2-37.03,3.38-74.79,4.91-111.94,6.33-26.42,1.01-52.27.85-78.41,4.94-2.28.35-4.29,1.12-6.22-.28-.17-4.13-.15-8.2-.01-12.34,1.09-.63,2.16-1.29,3.22-1.98.6-17.63-11.86-31.75-15.66-48.32-.95-4.15.94-8.69.01-12.7-1.65-7.03-8.85-13.53-10.93-21.24-1.06-3.92.9-5.98,2.65-9.32,3.8-7.24-6.57-7.62-8.5-13.59,1.15-1.88,1.93-3.2,2.26-5.39-.99-1.95-1.62-2.56-3.53-3.63-2.42.33-4.28.48-6.73.16-8-5.13-4.16-13.9-8.26-20.65-2.08-3.42-6.55-3.43-8.06-7.34.42-.9.85-1.79,1.22-2.71,1.75-4.43-9.03-15.11-11.23-19.93,5.16-11.45.01-7.19-3.65-15.36-1.69-3.78-2.22-9.07-3.26-13.16,1.42-1.29,2.65-2.6,3.88-4.07-.48-9.15-3.98-16.95-7.36-25.32-2.3-5.69-4.39-13.29-7.73-18.37-4.97-7.55-33.57-15.24-35.54-17.75-5.95-7.56.62-17.83-3.41-24.87-.16-.3-.36-.58-.54-.87-4.15-6.66-13.58-9.09-16.5-15.16-2.26-4.7-.13-9.1,1.69-13.47.84-2,.26-3.44-.05-5.55l1.11-.68c1.15,1.07.48.76,2.01.96l-.06-1.16c44.41-2.31,88.97-2.74,133.35-5.76Z"/>
    <path class="cls-36" d="M1588.91,1346.72c.13.02.28-.01.39.05,6.66,3.34-1.84,18.01,1.52,23.96l4.01.66c.61,3.09-.5,1.98-1.77,4.42-1.23,2.37-.21,8.87-.04,11.61,3.17,51.77,5.67,103.56,7.5,155.39-16,.51-203.13,8.99-204.99,9.77-2.43,1.04-2.26,3.58-4.71,4.85-2.81,1.45-6.29,1.51-9.25.53l-.82-2.49c-5.43-5.01-33.45,2.28-42.67-1.09-1.26-.46-1.48-5.51-2.04-7.11-1.54-.51-3.09-.95-4.67-1.36l-.71-2.89c-5.02-1.56-26.46-4.92-32.19-4.72-.25-8.35,2.95-29.84-3.25-35.85-3.55-3.42-7.91-2.47-12.4-2.21.09-4.91,1.91-12.76-.69-16.96-3.23-1.34-4.92-.57-8.31.03-1.95-.03-5.87.27-7.29-1.07-3.8-3.55-2.5-11.88-2.46-16.68-7.8-.02-15.2.18-22.94,1.31l-.47-18.32-11.33-.3c-.62-5.77-.96-11.55-1.3-17.35-3.07.06-6.15.07-9.22.04-10.92-.16-17.63-11.82-24.71-19.07l-.63-15.72-17.14-.02-.56-33.78c45.37.67,91.08-2.38,136.45-3.86l217.64-7.06c9.31-.37,18.39-2.49,27.63-3.52,10.33-1.15,21.03-.97,31.42-1.19Z"/>
    <path class="cls-36" d="M2134.18,1660.63c3.28-.57,5.48-.66,8.36,1.11,3.93,10.43-13.2,20.4-14.16,28.62-.3,2.56,4.4,7.76,5.02,10.91.45,2.32-2.56,4.24-2.23,7.52.88,8.58,7.71,20.27,6.58,28.5-1.15,1.35-3.57,3.76-4.1,5.37-1.59,4.89,2.21,17.7.32,24.47-1.5,5.34-9.65,15.17-12.52,22.88l-.66,1.79c-17.47.48-34.81,3.35-52.21,4.88l-90.84,7.23c-58.37,5-116.89,7.67-175.31,11.94-31.89,2.53-63.82,4.21-95.8,5.05-6.8.14-15.56,1.46-22.18.47-8.68-1.3-17.17-10.57-25.9-12.38-6.63-1.38-14.12,1.65-20.72-.56-1.14-2.42-.81-2.91-.33-5.58,4.99-8.22,9.6-16.69,14.34-25.06l-10.85-8.56c-3.65-.27-6.63-.27-9.57-2.51-.09-1.48-.06-3.8-.86-5.13-4.16-6.94-21.47-11.77-23.91-24.88,1.69-2.42,2.01-3.71,2.11-6.67.04-1.32.52-1.53,1.31-2.55,1.93.05,3.29.01,5.12-.63l.9-1.98c-.29-2.19-1.01-4.97-.14-7.05.56-1.34,5.48-3.12,6.97-3.81,1.55-2.57.76-4.34.42-7.27,1.49-2.37,2.59-2.42,5.34-2.58,20.88-1.21,43.98,4.41,62.96,3.12,3.81-.27,7.53-1.12,11.36-1.29,7.03-.31,16.83.9,23.53-.87,4.11-1.09,1.04-5.36,4.9-6.43,7.73-2.14,48.37-2.58,60.05-3.25,45.31-2.59,90.73-6.07,136-9.37,10.42-.76,64.02-2.7,69.67-6.58.18-2.15.3-4.28.39-6.43,4.06-3.24,120.28-10.77,136.64-12.44Z"/>
    <path class="cls-36" d="M1352.87,991.8c2,.7,3.8,2.2,5.86,2.97,2.22.83,4.6,1.05,6.8,1.92,5.73,2.28,11.89,10.36,16.23,14.84,3.2-.83,5.93-1.79,9.24-.97,4.73,4.92.09,19.34,1.77,26.85,1.42,6.32,9.17,4.85,13.36,8.02,6.63,5.02,3.64,14.95,4.27,21.97.26,2.83,1.11,8.29,3.77,9.99,9.27,5.93,24.84,7.51,33.88,16.02,3.04,2.87,3.28,9.2,4.82,13.08,4.28,10.8,10.48,17.36,10.51,29.87-9,7.02.86,10.05-1.2,18.84-8.69,3.67-82.71,5.05-97.37,5.22l-.03,17.63c-17.3.12-34.53,1.08-51.86.95.81,5.92.88,11.85,1.02,17.81-8.59.29-17.19.41-25.78.34-17.99,19.79-27.93,34.74-56.26,37.68-7.6.79-15.24.58-22.87,1.43.7,14.7,1.02,29.41.96,44.12-18,18.83-36.41,37.57-55.31,55.5-1.58-.02-.99.33-1.74-.99-9.27-16.3-8.3-6.66-18.04-11.74-4.54-2.36-8.33-6.57-12.91-9.14-2.03-1.14-3.76-2.3-5.6-3.72-1.95-1.34-4.11-2.57-5.17-4.76-1.11-2.27-1.35-4.9-3.47-6.54-1.28-.99-2.77-.15-4.24.14-2.54-1.15-3.4-2.69-4.59-5.26-3.08-6.7,1.61-9.88,4.09-16.11-1.46-4.35-5.57-5.78-7.55-9.53-1.73-3.26-1.01-5.92,0-9.21,3.05-2.8,6.88-2.98,10.77-4.35,4.25-4.58,1.74-27.43,1.74-34.89-15.3-10.48-37.98-35.99-52.76-50.35,18.99-19.54,37.49-39.6,56.21-59.4,16.68,13.2,9.81,29.98,22.22,38.88,4.03,2.88,5.98,3.49,7.2,8.49.11.45.21.91.32,1.37,10.15,4.5,15.67,3.96,25.84.77.71.29,2.27.97,2.98,1.12,2.75.57,6.19-3.9,8.44-5.46,3.8-2.64,11.44-2.89,15.98-3.77,8.82-1.7,17.53-5.86,26.14-7.27,1.55-.25,2.79-.08,4.3.17,1.88.31,3.67.22,5.58.2,4.8-2.84,11.57-16.81,13.13-22.15,1.31-4.48,2.64-6.93,6.01-10.17,2.35-.53,4.05-.87,6.09-2.22.21-1.94.31-3.24,1.38-4.9,2.18.82,2.5,1.43,3.99,3.28.47-1.29.99-2.59,1.4-3.9.57-1.83,1.22-3.31,2.12-5.03,1.67.22,3.31.37,5,.46,3.09-2.88,4.65-5.43,4.92-9.65-1.2-1.68-2.33-3.34-3.36-5.13l.83-.86c1.78,1.22,1.85,1.56,4.11,1.69l2.57-3.42c3.27,1.66,1.56,5.48,5,7.51,3.84-2.01.99-3.89,3-6.3,3.5-4.2,11.7-1.46,15.99-6.89,9.3-11.8,1.14-26.87,9.06-38.88,8.25-12.5,30.38-33.72,41.23-46.17Z"/>
    <path class="cls-36" d="M1445.46,1158.69c6.26-.21,15.89-1.85,21.6.72,1.47,2.17,1.95,2.49,1.91,5.07l-3.17,2.97c-.19,5.88,9.16,14.55,12.31,19.81-.48,1.59-.89,3.03-1.1,4.69-.51,4.03,6.09,6.24,8.29,9.43,1.56,2.27.65,4.9.12,7.37-.34,1.55-.14,1.92.76,3.33,3.71,5.81,7.32,9.05,14.11,10.34.47.09.94.17,1.42.25l1.11,1.82c-1.06,1.63-1.61,2.89-2.1,4.76.97,3.29,4.24,5.1,6.82,7.13,5.47,4.27-2.57,10.05-.71,16.2.1.34.23.67.34,1.01,1.75,5.48,4.97,10.16,8.07,14.96,4,6.21,1.05,12.63,2.75,19.31,3.17,12.44,10.93,23.74,14.41,36.12,1.22,4.36.57,6.55-1.7,10.39-2.18,3.7.72,9.67-1.1,14.34-10.57,2.34-44.72,1.83-57.59,2.22-32.92,1-65.8,3.1-98.73,4.03-30.41.24-60.78,2-91.19,2.37.36-28.31-.68-56.73-.65-85.08.01-2.9-.74-8.2,1.28-10.2,2.48-.05,4.43-.03,6.73-1.13.08-.51.2-1.02.25-1.53.43-4.59.59-23.11-1.77-26.12-2.53-.03-4.49-.2-6.96-.87-2.09-2.87-.88-11.46-.9-15.19-2.02-2.78-3.37-.77-5.32-2.66l13.84-15.31,26.53-.49-.03-17.77c17.22.11,34.49-.59,51.7-1.16l-.03-17.37c16.38.25,54.67.39,69.43-2.62,3.11-.64,6.1-.92,9.27-1.14Z"/>
    <path class="cls-36" d="M979.5,264.39c45.78-.28,91.55-.97,137.31-2.08,20.64-.44,41.85.5,62.4-1.1,2.96,22.76,1.7,54.61,2.25,78.36l3.68,144.2c.6,23.95.16,48.3,2.07,72.15-3.93,3.61-6.87,3.87-12.02,4.5-.58.07-1.16.16-1.74.23-2.75.35-4.69.63-7.34-.47l-.56-1.45c.84-.93,2.65-2.45,3.16-3.5,2.63-5.48,3.16-24.29,2.87-31-.58-13.63-12.49-15.94-15.71-27.15-1.12-3.9-.62-10.63-3.64-13.21-6.76-5.78-15.21-3.49-22.39-7.78-4.96-2.96-8.97-7.51-12.9-11.68-18.08-19.22-22.33-21.17-48.3-25.76-1.93.8-3.23,1.46-4.77,2.87l-2.11.86c-.39,1.41-.78,2.07-1.85,3.09-6.03,5.73-10.11,12.26-14.66,19.16l-1.45-.38c-3.04-3.71-4.93-4.89-9.57-6.09-3.22-.84-5.16-1.58-7.55-4.02-6.82-6.97-4.37-31.48-4.53-41.11-13.47-.08-26.94.04-40.41.34-.54-13.77,2.19-85.48-1.28-92.08-3.17-10.59-.86-43.99-.94-56.89Z"/>
    <path class="cls-36" d="M1657.76,1810.78c.31.38.59.79.92,1.16,2.14,2.44,23.7,11.8,27.02,11.83,38.77.41,77.95-3.04,116.6-5.68,24.38-1.66,49.21-2.1,73.46-4.99,2.8,22.52,3.28,45.94,4.65,68.65-.51.37-1.33.96-1.76,1.38-.09.08-1.28,1.46-1.3,1.6-.82,3.97,4.33,81.64,5.09,91.61-19.6,1.71-39.71,6.1-59.15,9.26-36.75,6.57-74,10.71-110.6,18.09-.95-3.68-3.12-8.8-1.82-12.42l2.76-.19c1.52-1.44,2.18-3.14,1.88-5.3-.75-5.42-6.91-12.7-10.83-16.55-7.14-7.01-7.09-1.91-15.07-1.81-.51-2.61-.74-3.13.19-5.58,1.32-.85,2.92-1.73,4.06-2.79,2.07-1.92,1.88-2.65,2.06-5.34l-1.34-1.46c-2.05-.12-4.7-.02-6.65-.59-2.36-.69-3.46-2.01-4.14-4.34-.66-2.27.12-3.96,1.1-5.92,1.54-3.09,2.73-5.61,2.16-9.21-6.11-39.11-30.65-75.27-62.85-97.55,1.33-18.38,4.83-7.35,12.99-16.73.05-1.88.2-3.59.55-5.43,4.04-2.3,15.01-1.41,20.02-1.7Z"/>
    <path class="cls-36" d="M1573.57,1545.69c7.23-.42,14.53-.41,21.77-.61.43,21.28,1.78,42.5,4.07,63.67,1.45,14.54,4.53,30.27,3.78,44.83-.51,9.85-6,43.63-11.1,50.78-1.94,2.71-6.39,4.44-8.61,7.12-2.05,2.46-1.06,5.8-.87,8.76-2.88,5.73-22.65.57-29.12,4.41-.83,2.9-.92,6.23-1.9,8.97-1.4,3.91-6.82,5.73-9.55,8.74-5.11,5.61-4.93,16.49-12.26,20.11-3.88,1.92-8.88-1.2-12.67-2.28-3.19-.91-7.39-.11-10.14,1.75-2.44,1.64-2.57,4.5-2.99,7.15-.26,1.63-.56,1.61-1.64,2.75-4.66.16-7.75-3.13-12.13-3.3-1.9-.08-3.69-.22-5.58-.42-1.51-1.92-1.77-2.9-1.97-5.33,1.94-3.12,3.51-6.4,3.59-10.15.32-14.42-14.08-32.65-23.75-42.31-3.65-.88-6.94-1.75-10.71-1.56-9.57.75-28.88.53-35.94,7.01-.26.24-.5.49-.76.74-3.19-.15-5.63-2.99-8.11-4.99-2.96-.22-6.36-.22-9.24-.88-2.44-.56-3.15-1.37-4.33-3.46,1.08-6.53,17.16-16.39,22.8-20.86,6.99-.59,14-.92,21.01-.97-.52-9.63-.13-8.69,3.77-17.51,1.18-2.68.98-5.76.21-8.54-2.93-10.52-9.12-21.45-13.64-31.51-10.9-24.31-22.45-48.58-32.11-73.4,18.23-1.6,36.79-1.6,55.1-2.4,41.03-1.65,82.03-3.75,123.02-6.31Z"/>
    <path class="cls-36" d="M809.5,281.21c.25-6.22,1.18-10.61-2.96-15.62,7.85-2.02,50.41.02,61.61.03,36.39.02,72.77-1.05,109.16-1.17-.04,18.75-.45,37.58.25,56.32,4.39,6.05,1.08,78.34,1.78,92.49-11.69-.09-32.34-3.45-41.21,4.77-12.92-3.66-26.45-4.55-39.64-1.8-7.93,1.65-13.33,3.49-21.53,2.88-11.98-.9-35.25,8.35-49.97,9.93-9.73,1.05-23.3-4.24-29.49-3.31-4.28.64-12.21,5.81-15.47,8.66-.08.07-.15.16-.22.24l-3.45,2.18c-5.32.3-8.18-1.36-12.43-4.47l-1.01-.75c-6.32-.36-17.56.95-23.45,3.5-7.6,9.23-7.54,4.3-17,6.07-3.15.59-6.15,2.4-9.42,3.13l-1.04-1.3c-2.68-16.05,38.51-34.53,43.51-45.14,3.09-6.56,8.7-5.28,14.26-8.66,1.98-6.34-6.22-16.58-7.98-23.07,1.49-1.04.86-.7,2.51-1.44.38-.17.77-.33,1.15-.5,3.48-10.56,17.09-35.79,18.26-42.82.35-2.11-.07-4.38-.17-6.5-.53-11.75,6.79-7.29,11.22-14.23,1.78-2.79.72-10.31.54-13.67,4.12-1.78,8.17-3.69,12.17-5.73Z"/>
    <path class="cls-36" d="M565.31,205.47c14.28.02,28.57.63,42.85.7l-.85,17.19c12.64,0,29.96-2.1,42.04,1.57,4.82,5.43,6.02,18.98,6.37,26.17.24,4.78,4.51,8.04,5.86,12.68-.74,2.96-2.63,14.52-4.29,16.35-.83.92-2.1,1.3-3.15,1.96l-.34,2.14c.58,2.22,1.15,3.12,2.85,4.57,1.65,1.4,2.93,2.71,4.32,4.37.56,5.2-3.84,13.78-6.43,18.4-1.42,2.52-2.46,3.01-5.14,3.83-2.91-.71-4.54-1.86-6.91-3.7l-.87-.68c-3.52-.43-9.63,2.26-12.57,4.31,2.55,11.31,8.98,19.81,10.97,33.49,2.12,14.57-.53,36.28-.84,51.49-.72,34.21-.98,68.42-.77,102.63-8.66.16-17.23-.03-25.88-.46-11.14-.44-22.3,0-33.45-.24-5.79-.12-13.55-.22-18.33-3.9-4.2-3.25-2.78-11.96-7.15-16.42-3.32-3.39-9.08-4.42-12.93-7.33-8.95-6.75-17.52-17.63-25.37-25.82,3.74-14.58,1.21-24.19-5.85-37.21,2-5.25,10.02-30.47,13.16-33.26,2.38-2.12,3.73-.52,5.68-4.02l-.2-4.44c-.15-3.41.07-4.67,1.94-7.6,3.02-1.52,4.19,1.8,7.7,1.65,4.74-4.42,2.54-15,6.07-20.87,1.79-2.98,4.5-3.64,7.72-4.31,3.19-.66,4.98-.87,7.36-3.17,1.05-2.65,1.35-3,.72-5.74-2.57-1.59-5.12-2.24-8.01-3.02-3.91-5.34,6.65-24.32,4.86-33.32-.74-3.71-2.88-5.22-5.78-7.21-.45-2.89-1.32-6.39-.95-9.27.76-5.93,4.7-13.36,6.52-19.34,5.06-16.59,8.47-34.84,9.07-52.17Z"/>
    <path class="cls-36" d="M567.81,504.23c10.87-.5,61.5-.86,69.83,1.71l1.33,3.36c9.61,4.71,83.88-2.19,93.44,2.12,1.19.54,1.52,1.26,1.74,2.53.4,2.32-.35,5-1.5,6.99-.89,1.54-1.66,2.9-2.07,4.67-1.83,8.05-1.58,26.17,2.77,33.01,1.46,2.3,4.43,6.16,5.2,8.66,1.83,6,.05,25.64-.74,32.65-5.43,2.91-12.07,2.73-18.03,2.29-.82.44-1.63.88-2.44,1.34-19.29,11.11,3.91,39.95,3.53,54.79-.12,4.87-12.01,16.98-13.83,24.21-5.01,19.89,11.35,22.67,16.74,32.78,2.03,3.8,1.1,8.69,3.74,12.32,2.23,3.07,4.2,3.1,7.61,3.65l1.88,1.45c3.4,2.66,6.72,4.55,10.57,6.48-13.6.1-36.48-3.63-48.5,3.19l-.53,3.53c-8.03,5.97-26.4-2.12-35.81,2.01l-1.11,4.48c-5.2,2.69-14.6-.67-22.1,2.52-.35.15-.69.31-1.04.46-8.21-3.98-22.68-23.35-28.28-31.26-5.99-8.48,2.98-9.96,4.12-18.97,1.48-11.75-3.32-27.2-10.83-36.34-.3-.36-.6-.71-.9-1.06-.33-6.85-2.34-13.32-3.9-19.97-4.91-20.91-1.47-32.04,5.85-51.47-2.73-9.78-3.24-18.86-3.55-28.97l-5.48-6.46c-1.28-7.86-2.11-15.73-2.93-23.64l-8.3-5.9c-3.49-10.61-9.9-18.32-16.48-27.14Z"/>
    <path class="cls-36" d="M920.58,1137.39c4.13-.19,8.36.17,12.5.32,3.76,2.47,3,8.38,6.04,11.63,7.11,7.59,20.02,13.8,25.41,22.45.2.32.34.68.51,1.02-1.07,1.3-2.17,2.56-3.3,3.81l.42,2.41c4.95,6.79,14.27,8.1,21.53,11.66,5.07,6.18,1.53,10.75,3.74,17.37,1.88,1.68,3.25,2.86,4.43,5.15-.66,1.85-1.26,3.67-1.76,5.58,1.82,1.32,3.06.82,5.27.84,1.13,0,4.46-.07,5.43.39,2.34,1.13,8.67,10.31,10.8,12.65,7.13,7.85,14.85,15.25,22.35,22.76.03,2.37-.05,4.95.29,7.3.41,2.82,1.73,3.74,3.84,5.42,3.74-.31,4.96-2.71,7.98-4.81l2.54,1.83c2.8-.56,4.52-3.83,6.3-6.07,6.37-1.18,22.2,18.22,29.17,20.98,2.49.98,3.71,1.29,6.2.3,2.93-5.99-4.12-13.01-3.4-19.16,2.83,1.5,4.85,4.4,6.83,6.87,10.69,13.27-1.33,15.2,5.22,31.13,2.58,2,4.34,1.62,7.55,1.82,4.29,11.42,18.92,18.03,28.61,24.95,2.46-.15,4.92-.39,7.34.14,5.28,1.17,6.04,7.29,8.92,10.97,2.3,2.95,6.5,2.51,9.92,3.2,2.06,1.65,3.02,2.28,3.72,4.95-1.12,2.75-1.87,4.48-1.36,7.53,1.54,2.86,4.22,3.6,7.04,4.83-.48,1.41-.89,2.1-1.73,3.28-17.62,1.57-35.91.36-53.63.72-42.91.87-86.48,2.12-129.33-.4-4.69-4.4-10.29-9.07-13.74-14.53-.27-.43-.52-.87-.78-1.31-4.69-7.65-7.33-16.7-10.34-25.13l-10.05-3.9c-7.07-9.82-10.96-21.27-19.78-30.03-8.54-8.49-20.17-13.39-28.92-22.34-4.88-4.98-5.08-7.09-4.88-13.96.22-7.2-9.8-30.21-8.14-33.63,1.16-2.4,2.43-1.74,2.96-5.01-.87-3.72-4.97-6.46-7.73-8.93.48-.85.97-1.7,1.47-2.55,5.98-10.02,7.69-.14,15.44-2.11,2.66-2.23,5.39-5,6.41-8.41.85-2.83,7.85-32.65,7.73-33.42-.17-1.03-.96-1.85-1.49-2.75-.67-1.16-1.69-2.33-2.06-3.64-.59-2.14-.07-3.82.9-5.67,2.5-1.36,5.16-2.56,6.75-5.02.31-.48.59-.98.89-1.48Z"/>
    <path class="cls-36" d="M988.84,1363.28c19.68,1.76,39.76,1.1,59.51,1.11l125.46-1.11c.21,11.62.3,23.24.27,34.87l17.81.09.16,15.46c4.98,4.87,9.2,10.32,14.04,15.2,5.79,5.84,13.21,4.44,20.74,4.23l.2,17.38c1.7-.09,3.41-.19,5.12-.19,3.71,0,4.95.83,7.49,3.43,1.04,4-1.28,7.06-1.3,11-.01,1.58.68,1.8,1.67,2.89,5.92,1.85,15.68.14,22.09.14.15,5.89.81,11.8,1.3,17.67,5.3-.29,13.46-1.93,18.28.1,1.36,3.28-.35,6.16-1.13,9.54-.7,3.06-.05,4.35,1.58,6.92,3.07.48,6.67.5,9.59,1.37,1.31.38,3.34,1.37,3.81,2.69.8,2.22,1.56,23,1.37,25.99-.14,2.09-.75,3.55-1.7,5.38-3.28,1.97-5.47,1.41-9.24,1.36-18.78-16.81-24.06-9.92-42.53-17.89-4.18-2.27-7.61-5.7-11.98-7.56-6.89-2.93-14.52-3.93-21.41-6.78-5.04-2.08-10.1-5.99-14.72-8.94-11.54.98-11.77,10.99-19.1,16.97-3.78,3.08-16.2,3.67-21.59,5.15l-.75,1.47c.58,4.89,5.08,9.42,7.02,14.09-.24,2.68-.13,2.84-1.94,4.79-2.7-4.87-8.91-8.81-13.65-11.6-13.25-7.82-24.77-2.79-38.53.69l-1.34-.98c.34-7.31,2.09-15.23,1.16-22.49-.43-3.36-.73-6.73-1.09-10.1-3.52-2.55-7.05-5.34-10.74-7.62-3.49-2.16-6.31-1.14-9.99-.16l-1.24.34c-6.49-2.03-16.83-8.89-19.96-15.13-1.64-3.28,0-6.77.98-10.06,1.77-1.26,6.32-3.97,6.94-6.07,1.77-6.01-6.26-18.69-8.84-24.46l-17.83-2.75c-10.31-10.96-18.89-21.5-26.61-34.47l-20.32-6.59c-2.76-8.55-5.78-17.01-9.07-25.37Z"/>
    <path class="cls-36" d="M789.81,227.8c.34.17.71.3,1.03.51,3.34,2.27,6.78,5.08,9.86,7.71-1.46,6.33-4.7,16.3-3.67,22.76.73,4.58,4.84,6.59,7.97,9.36,1.94,1.73,2.69,3.77,2.72,6.36.09,9.93-7.52,6.01-12.5,10.98-1.52,1.51-.01,5.88.12,8.12.45,7.76-6.62,8.86-11.04,13.8-1.97,5.4.82,11.38-1.01,16.26-2.22,5.91-9.04,8.82-8.32,15.96.17,1.64.35,3.36.09,5-.41,2.66-2.31,3.68-4.33,5.07-2.1,1.45-3.23,2.03-4.11,4.55.08.59.17,1.18.24,1.78.5,4.25-1.3,6.2-3.79,9.42-.88,1.13-.95.85-1.05,2.31-.29,4,1.65,7.38,3.88,10.54,1.82,2.58,3.05,4.77,4.1,7.73-.49,2.82-10.26,5.5-13.2,8.55-8.13,8.44-16.26,17.77-27.27,22.32-1.71.71-4.48,1.77-5.67,3.22-.62.75-.4,3.12-.94,4.04-2.41,4.09-8.47,7.1-10.3,11.61-.78,1.92-1.29,4.22-1.26,6.3.11,8.57,12.04,10.93,15.01,18.55,2.25,5.78-1.38,7.8-1.2,12.8.11,3.1,4.46,30.34,5.55,33.05.13.33.31.63.47.95-3.8,3.24-82.05.73-90.57.67l.05-21.32c-.15-26.09.05-52.17.62-78.25.48-23.5,3.65-49.48-1.21-72.59-1.51-7.19-5.84-12.63-8.44-19.46l1.1-1.55c6.1-2.73,11.99,2.23,17.89,3.75,2.18-1.17,4.03-2.26,5.38-4.4,1.72-2.73,2.49-6.1,3.78-9.05,8.88-20.19-.64-8.38-2.84-21.21,5.09-6.31,2.86-8.42,4.39-15.59,2.52-.44,5,.57,7.39,1.32,15.27,4.73,15.9,15.28,23.21,17.59,4.92,1.55,9.84-1.67,15.48.59,4.15,1.66,6.76,2.92,8.54,7.14l2.24,5.21c3.66,2.15,5.13-.61,8.69-.79,4.04-.2,4.91,4.36,8.5,3.96,2.69-.3,3.44-1.28,4.93-3.23.48-2.51.52-4.37-.2-6.86-1.34-4.62-3.05-6.19-7.21-8.37-1.92-1-1.55-1.27-2.24-3.22.44-1.64.86-3.23,1.11-4.91.62-4.07,1.1-9.31,4.51-12.11,4.56-3.73,12.75-2.04,18.11-4.53,4.23-1.97,21.44-14.92,24-18.35,1.28-1.72.65-4.36,2.52-6.35,2.41.53,4.03,1.06,6.46.36,2.31-2.6,2.23-4.78,2.44-8.06Z"/>
    <path class="cls-36" d="M1258.52,764.53c8.66,4.2,72,60.76,83.74,70.84l200.14,170.51c-19.29.83-38.58,1.78-57.87,2.85-9.28-.12-18.7.97-27.99,1.36-20.61.87-41.2,1.37-61.81,2.39-1.73-2.03-3.04-3.53-5.48-4.78-2.83.94-4.03,1.32-7.04.55-3.45-4.26-7.93-9.24-12.69-12.03-3.89-2.29-10.88-3.34-13.85-6.54-4.52-4.86-7.14-14.91-10.6-20.81-1.91-3.27-4.66-6.35-6.86-9.46-7.38-.6-11.76,1.8-17.94,1.8-2.22,0-2.73-.31-4.28-1.71.28-3.79,5.56-8.51,8-11.37-.52-6.66-.97-13.32-1.76-19.95-1.41-2.46-2.55-3.01-5.01-4.12-3.49-1.58-7.11-2.91-9.41-6.14-4.14-5.82-2.33-11.93-1.3-18.44-2.09-3.37-4.11-6.63-7.29-9.08-2.92-2.25-11.26-7.7-14.67-7.23l-1.94,3.35c-3.46-.9-4.63-9.79-9.29-11.67l-1.88,3.25c-.25.02-.51.07-.77.05-4.7-.3-7.23-5.24-10.07-8.39-2.23-.34-3.99-.48-5.94-1.7.6-4.03,2.14-9.15,1.68-13.16-.22-1.89-3.19-3.21-4.7-4.21-1.93-9.3,5.02-13.48,4.71-17.89-.17-2.46-2.1-2.06-1.13-5.05,3.01-.89,5.68-1.39,7.38-4.29,1.58-2.71,2.05-6.16,2.48-9.23,2-14.26-8.43-20.03-11.54-32.51-.93-3.75-.47-6.67,1.65-9.88,1.38-2.11,2.2-3.99,3.02-6.37l.32-.95Z"/>
    <path class="cls-36" d="M782.68,436.97c3.44-3.05,11.08-8.28,15.84-8.25,10.38.07,20.17,3.2,30.76,2.23,14.46-1.32,26.16-6.19,39.99-9.43,5.85-1.38,11.43.68,17.24.47,4.48-.16,8.39-3.65,12.81-4.52,7.04-1.38,15.86-.13,23.09-.07,5.04.04,10.72,3.04,15.46,2.59,5.42-.51,10.05-9.84,15.9-2.9,5.22,6.2-3.09,16.21,8.26,18.77,5.93,1.33,9.92.79,13.98,5.95-.96,1.01-1.88,1.89-2.93,2.8.07.32.15.65.22.97,1.15,5.33,1.18,11.2-.54,16.4-3.62,1.56-7.9,1.52-10.65,4.2-.69,4.08,1.09,10.79-2.4,13.3-4.53,3.27-16.78,3.72-18.97,6.02-4.89,5.13-5.17,14.58-9.14,20.21-2.53,3.59-8.92,1.73-12.29,5.25-3.68,3.85-2.08,9.63-5.11,13.58-5.29,6.91-35.11,3.39-44.15,4.11-1.04,2.31-4.18,7.34-4.35,9.61-.23,3.11,2.05,3.63.02,6.79-11.7,1.25-23.86.64-35.64.61l-68.57-.5c-9.04-.02-18.5-.57-27.48.24-.8-2.17-1.63-4.37-2.2-6.62-1.28-5.09-.82-9.01,2.06-13.35l.67-1c1.09-1.64,2.04-3.11,2.27-5.13.15-1.32-7.87-37.96-8.73-42.18-1.45-7.04,2.87-15.13-.31-21.3-1.24-2.4-2.96-2.97-5.32-3.86-2.28-.86-4.12-1.61-6.18-2.91.84-8.72,16.13-3.23,20.97-6.32,1.44-.92,3.16-3.37,4.38-4.67,6.73-1.6,17.14-7.1,23.49-3.24,2.41,1.47,5.68,4.08,8.46,4.58,3.8.67,5.97-.52,9.06-2.42Z"/>
    <path class="cls-36" d="M973.33,435.98c-3.59-1.22-10.96-1.32-13.26-4.26-2.89-3.7-2.42-7.06-1.63-11.45.08-.45.17-.89.25-1.33-1.04-.96-1.41-1.22-1.85-2.6,7.1-2.57,52.15-1.02,62.74-1.04.21,7.9-1.28,39.08,5.66,42.74,5.68,2.99,9.75,1.72,15.17,6.43,1.8,1.57,3.97,2.84,6.44,2.33,7.33-1.52,3.47-6.71,6.63-10.83,2.73-3.55,7.06-5.86,9.47-9.64.71-1.11,1.19-1.79,2.1-2.74l1.19-1.22c5.05-2.34,12.67-.93,17.83,1.07,22.36,8.67,29.97,26.91,48.84,37.62,6.28-.65,11.73-.27,16.75,4.18,4.02,3.57,2.28,10.32,4.43,15.02,2.64,5.77,11.07,10.23,13.18,16.15,1.98,5.55,2.01,11.76,1.88,17.58-.19,8.9-1.19,19.38-6.92,26.56-11.05.91-73.44.45-76.66,3.47-.76.71-1.56,2.22-2.09,3.06-4.66-.07-7.17-4.75-11.24-6.5-5.08-2.19-4.53,3.72-10.35-2.27-3.09-3.18-6.12-6.17-9.45-9.1-2.53,1.5-6.88,3.55-8.58,5.95-1.29,1.82-1.89,4.76-2.56,6.88-3.08,9.59-6.8,12.98-14.56,19.23-1.99,1.6-3.1,3.45-5.71,3.25-.3-.49-.58-.99-.89-1.47-1.52-2.32-3.92-3.1-6.38-4.1-3.1-4.76-6.26-9.42-9.97-13.73-8.02-9.27-30.99-30.32-35.05-40.37-.13-.32.54-22.67.76-23.78.57-2.85,1.5-3.91,3.68-5.75,1.9-1.6,2.18-2.78,3.01-5.06-.32-1.12-.58-2.34-1.04-3.41-.59-2.69-3.83-8.29-5.22-10.85-1.4-2.57-2.42-2.26-5.16-2.87l-.82-1.95c1.68-1.39,3.36-2.79,4.94-4.31,6.15-5.94,8.92-11.98,9-20.48.06-5.78-.56-6.29-4.55-10.4Z"/>
    <path class="cls-36" d="M1193.34,1499.9c1.64.41,1.15.13,2.4.97,3.51,2.35,6.99,4.41,10.67,6.47,6.97,3.91,14.96,4.25,22.38,6.89,6.45,2.29,11.83,7.59,18.12,10.46,7.74,3.54,16.98,2.53,24.97,5.96,5.06,2.16,9.36,6.97,14.19,9.86l.99.58c4.97,0,9.92-.55,14.88-1,.06,20.39.42,40.77,1.09,61.14.34,12.03,1.58,24.64.46,36.61-.28,3-.77,4.56-3.06,6.5-6.17.19-13.37-5.87-20.03-6.81-6.37-.9-13.21.22-18.23,4.29-.28.22-.55.46-.82.69-2.11-.71-4.22-1.38-6.33-2.06-7.13-2.29-12.72-.16-19.75-1.2-6.93-1.03-12.62-4.71-19.11-6.98-7.9-2.77-16.86-2.18-25.14-2.23-22.36-1.31-33.26.15-54.87,5.36-8.99-27.84-21.05-18.02-28.34-24.56-2.13-7.86,3.24-19.92,5.59-27.6l-6.23-10.87c1.22-6.71,3.06-13.36,4.67-19.99-3.79-4.34-7.94-8.42-9.22-14.19.38-1.73.29-2.55,1.54-3.9,3.74-4.02,9.96-3.3,14.8-4.81,3.8-1.18,7.03-4.52,11.21-4.23,11.56.77,20.7,9.42,27.78,17.48,2.39.23,2.39-.07,4.38-1.5,2.34-5.89-3.61-14.4-5.85-19.91,4.58-3.28,13.25-.8,18.47-3.59,5.94-3.17,9.25-12.56,18.39-17.83Z"/>
    <path class="cls-36" d="M1191.05,823.12c6.49,1.51,15.8,9.57,21.52,13.42,3.93-1.96,7.55-4.36,11.31-6.6,4.79-2.85,9.98-6.26,15.63-4.81,2.02,3.32.61,4.62,1.11,8.16.38,2.7,6.55,5.43,8.83,7.21-.03.65-.02,1.31-.11,1.95-.28,1.99-.62,1.61-.7,3.69-.12,3.4,3.02,5.55,4.66,8.15,1.38,2.19.27,5.34-.15,7.76-.33,1.92-1.02,4.9-.29,6.77,2.58,6.63,20.05,9.08,24.9,16.11,1.2,1.73,1.84,2.95,3.71,4.01,2.32-.61,5.15-1.58,7.57-1.37,7.25.64,11.51,7.09,15.59,12.39-.36,2.48-.7,4.96-1.15,7.43-2.13,11.93,3.5,8.83,8.12,16.47,2.71,4.49,5.91,1.04,8.26,4.8,2.77,4.44,1.39,13.47.16,18.15-1.02,3.91-3.02,9.09-6.59,11.29-5.59-1.84-15.71-20.22-27.1-24.39-2.38-.87-4.09-.74-6.31.36-5.08,2.53-7.03-5.76-11.62-7.15-6.95.79-18.65,18.99-26.02,23.73-5.75,3.7-13.07,6.81-19.86,5.27-.15,0-.31.03-.46,0-2.05-.28-3.74-.71-5.84-.34-13.57,2.39-17.56-7.98-28.59-10.41-6.82-1.5-6.92,4.57-11.83,7.64-1.2-.36-2.18-.77-3.32-1.33-1.8-.9-2.19-.4-4.1.04-7.37,11.24-22.44,9.12-26.63,15.76,1.82,6.02,5.39,11.42,8.5,16.84l-2.98-2.53c-3.67-3.08-7.27-7.09-12.37-6.63l-1.24,1.61c.63,2.1,1.16,4.1,1.52,6.27l-.55-.1c-7.78-5.89-36.12-29.45-39.72-36.94,4.78-9.91,15.55-13.7,19.36-23.84-.43-2.16-1.19-4.58-.59-6.75.68-2.47,6.8-3.91,8.54-5.86,3.67-4.11,6.88-12.04,9.77-17.02,8.67-14.97,26.54-49.08,38.69-59.16,5.16-4.28,14.18-7.12,20.35-10.09Z"/>
    <path class="cls-36" d="M1306.29,953.84c.07.08.15.15.21.24,1.19,1.85,2.12,3.79,3.72,5.35,8.75,8.57,14.66,1.58,24.26,2.06,8.02.4,9.8,13.56,14.1,18.63.9,1.06,1.93,2,2.37,3.37,1.04,3.28-1.12,7.72-2.79,10.4-10.57,16.9-30.89,28.5-40.39,45.99-5.04,9.26.75,21.72-3.6,30.55-1.45,2.93-4.16,7.05-7.34,8.11-1.57-.65-3.02-1.11-4.68-1.48-1.68,1.13-3.7,2.26-5.17,3.63-2.17,2.02-1.97,3.24-2.32,6.05l-1.44.31c-.49-1.24-.97-2.69-1.62-3.86-1.26-2.28-1.37-2.61-3.74-3.27-.9,1.16-1.83,2.3-2.78,3.42l-3.3-1.85c-2.26,1.22-2.24,1.2-3.2,3.58.78,2.28,1.93,5.05,1.96,7.46.03,1.96-.98,3.71-2.39,4.92l-4.05-.82c-3.47,2.27-.71,5.28-3.58,7.67-1.21-1.23-2.05-1.85-3.65-2.5-2.74,1.97-1.76,4.49-3.54,6.76-1.65,2.09-6.73,3.84-9.05,6.05-4.55,4.33-6.69,14.95-9.52,20.78-1.21,2.5-2.93,5.9-5.71,6.87-2.65-.31-5.93-.89-8.58-.53-5.24.72-11.37,3.8-16.68,5.19-8.92,2.33-18.03,3.48-26.88,5.95-.62.32-1.67.86-2.21,1.23-1.79,1.26-2.17,2.04-4.45,2.39-2.19.33-1.4.03-3.13.74-4.96,2.06-9.08,3.37-14.46,1.94-9.67-2.56-19.97-11.83-24.76-20.5.36-1.92.99-4.11.67-6.05-1.15-7.02-9.44-19.55-14.9-23.6-.32-.23-.64-.46-.96-.68l3-3.11c9.22-9.6,33.15-19.63,46.61-21.87,9.17-1.52,18.52-1.55,27.37-4.69.45-.16.89-.33,1.34-.5,15.68-16.02,30.64-32.67,45.65-49.31,3.99.08,8,.19,11.99.13,10.1-.14,4.6-1.85,6.6-8.18.27-.87,3.8-3.75,4.58-4.56,6.9-7.09,5.51-8.05,5.38-17.37,12.42-15.9,28.03-29.55,41.07-45.05Z"/>
    <path class="cls-36" d="M1134.03,988.06c.68.17,1.52.82,2.12,1.18,2.47,4.14,16.4,30.77,16.63,34.07.08,1.21-.9,2.75-.7,4.01.68,4.44,10.05,16.8,12.58,21.77,2.14,4.2,4.2,11.52,7.4,14.87,3.57,3.74,10.77,4.94,14.84,8.38,1.66,1.4,1.69,1.57,1.89,3.78-7.13,5.29-21.1,2.73-29.72,5.18-12.43,3.54-24.42,9.96-36.83,14.03-9.3,9.83-63.61,69.98-69.18,71.87l-3.48-1.8c-9.95-5.07-19.92-10.1-29.92-15.07-2.58-4.58-5.04-9.52-8.02-13.83-2.16-3.14-3.77-2.85-7.36-3.53l-.85-1.96,3.02-4.72c-.52-3.95-4.45-3.34-5.01-6.21-.83-4.32,2.6-9.28,4.6-12.93,3.12-5.68-2.42-4.3-2.78-8.35-1.3-14.53,31.76-37.81,40.27-49.97,1.93-2.75-.25-8.52-.59-11.9,1.87-4.23,81.64-43.88,91.07-48.87Z"/>
    <path class="cls-36" d="M1304.06,1540.06c1.84.1,3.62.3,5.45.51,6.24,6.22,10.59,1.52,17.81,3.57,3.95,1.13,7.4,8.92,9.36,12.39,12.98,1.8,27.18-2.48,39.81.11,4.47.92,6.59,3.76,11.89,3.78,2.37-.01,4.73-.08,7.1-.21,9.47,22.93,19.95,45.57,30.09,68.21,4.51,10.08,11.11,21.49,13.78,32.15.94,3.77-1.08,6.13-2.89,9.26-2.23,3.84-1.81,7.19-1.55,11.48l.12,1.83c-5.44.1-17.23-.85-21.54,2.45-8.78,7.12-16.91,14.21-24.88,22.25-.83-.18-1.66-.34-2.47-.57-8.08-2.33-37.29-13.13-42.12-19.45-4.19-5.47-6.82-15.07-10.17-21.49-6.52-2.6-27.73-14.79-31.4-20.55,1.61-1.78,2.71-3.11,3.05-5.61,1.48-10.77-.07-23.42-.38-34.31-.81-21.93-1.16-43.86-1.06-65.8Z"/>
    <path class="cls-36" d="M1168.94,693.37h21.15s.21,11.94.21,11.94c5.72,5.42,13.26,10.31,17.19,17.29,1.63,2.89,1.4,5.35.46,8.39-3.7,11.93-17.56,29.15-28.55,34.87-1.86-.38-3.46-.54-5.36-.5-1.68,1.72-1.92,2.89-2.3,5.17-.17,1.02-.29,2.05-.52,3.05-2.2,9.68-7.3,4.03-12.62,8.25-4.43,3.51-5.77,11.29-11.21,13.99-3.79,1.89-36.16,10.67-41.33,11.51-3.92.63-8.04.76-11.94-.1-7.64-1.7-14.08-6.95-21.62-8.9-9.89-2.56-12.64.75-20.48,5.2-3.24,1.84-4.01,2.21-7.62,1.21-3.54,1.08-6.69,2.28-10.44,1.87-7.61-5.21-10.34-30.77-16.35-39.45l-3.15-.45-.65-1.68c3.56-8.36,6.02-16.24,11.67-23.52,2.65-3.42,1.03-8.82,2.91-12.72.8-1.65,4.05-2.25,5.6-2.76,2.31-.75,9.7-2.43,11.07-4.47.94-1.4-.63-1.66,1.27-3.38l9.77.62c3.96-1.9,5.23-5.65,8.37-8.41,11.89-10.41,26.53,16.41,38.92,15.34,5.59-.48,12.05-7.64,16.03-11.22l3.32-12.08c12.83.1,26.42,2.28,38.82-2.04,4.17-1.45,5.48-3.11,7.37-7.03Z"/>
    <path class="cls-36" d="M954.62,485.68c1.47-1.48,2.35-2.27,4.22-3.27,2.23-1.18,3.86-2.46,5.61-4.28.26-.27.51-.55.76-.83,3,1.02,2.7,2.27,4.38,4.79,1.55,2.33,2.83,4.32,4.03,6.86-2.43,3.71-6.24,8.98-7.32,13.32-1.1,4.45,2.48,16.39.09,19.41-1.07,1.36-.69.85-1.6,2.65,2.59,8.08,29.23,33.95,36.59,42.56,3.61,4.22,6.48,8.89,9.92,13.17,1.03,1.28,2.29,1.98,3.72,2.73.77.4,1.56.75,2.35,1.1l1.51,2.63c-1.3,3.85-6.57,4.59-8.8,7.81-1.2,1.74-1.37,4.45-2.78,6.49-6.33.86-17.12-1.07-22.23,2.38-.98,5.22-2.83,7.68-4.74,12.29-3.36,8.12-2.58,16.56-10.74,21.98-15.48,10.28-57.69,11.02-76.16,8.87,1.85-6.67,3.22-13.14,3.83-20.05.52-5.92-.21-14.79,1.62-20.26.52-1.56,1.9-3.27,2.82-4.6l-.55-1.89c-3.63-1.51-20.79,1.84-21.82-1.31-1.68-5.18,1.83-9.26,2.7-14.12.64-3.58.58-7.49.64-11.12l1.1-1c2.07-1.91,4.05-3.17,3.85-6.21-.18-2.64-2.43-6.25-4.6-7.53-.85-.5-1.74-.94-2.61-1.41-2.77-1.5-5.06-3.14-6.09-6.25-.4-1.19-.58-2.58-.79-3.81-1.28-.9-2.5-1.74-3.87-2.49.04-4.07-1.93-6.69,1.2-10.53,5.64-6.92,24.1-2.29,32.49-2.75,20.4-1.12,9.7-13.16,19.3-19.42,2.77-1.8,7.7-.36,10-2.09,4.06-3.04,5.19-16.8,10.15-21.85,2.91-2.96,7.96-2.04,11.82-1.95Z"/>
    <path class="cls-36" d="M711.92,740.62c1.79-.2,1.42-.21,2.86-.23,10.11-.13,30.23-2.41,38.51,3.9,3.55,2.71,5.41,6.59,7.5,10.41,2.82,5.15,5.62,10.86,9.87,14.97,2.74.81,4.6,1.32,6.68,3.43,2.91,6.97.32,10.17-.73,16.93-1.61,10.38,11.13,12.54,15.27,20.06,10.92,19.82,21.98,40.74,29.37,62.14-1.32,6.9-7.84,9.48-11.72,15.01-.25.35-.48.71-.73,1.06-16.08,4.37-10.62-9.09-20.96-12.26-5.89-1.8-12.69-.96-19.03-2.86l-1.54-.47c-9.6-4.23-27.15-25.42-35.42-24.65-7.2.68-13.95,3.16-21.25,1.1-1.64-3.08-.33-5.7-.34-8.96-.02-5.01-6.39-14.6-8.8-19.31-12.17-6.9-25.03-14.59-33.55-25.96-8.37-11.17-12.04-23.25-23.5-32.07-2.04-1.57-3.6-2.33-3.92-4.92,4.38-5.04,11.82-1.37,17.74-2.28,4.99-.77,4.98-5.56,10.52-6.32,10.23-1.41,21.05,2.21,31.07-.52.92-1.25,1.11-1.85,1.39-3.45.09-.5.15-1,.22-1.5,1.98-.45,3.79-.81,5.83-.88,2.46-.08,2.78-.91,4.67-2.39Z"/>
    <path class="cls-36" d="M1050.1,900.77c4.21,2.5,8.43,8.1,11.76,11.8,9.91,11.02,18.85,23.18,29.17,33.79,13.45,13.83,28.74,26.46,43.03,39.45-13.82,6.87-86.51,42.31-93.85,49.37-1.08,4,.77,8.22,1.88,12.1-9.9,10.57-19.95,21.01-30.13,31.31-2.98,3.38-5.85,7.05-10.46,8.02-1.81-1.17-2.4-2.79-3.32-4.66-.67-1.37-1.46-1.4-2.79-2.07-4.32.41-7.9.33-12.17-.5l-1.24-.26c-2.51.79-3.41,1.82-4.99,3.79-.18.23-.36.46-.55.69l-.8-.22.04,1.28c-.96-1.3-.71-.67-1.04-2.36-.82-4.23-1.04-7.27-3.77-10.78-1.41-1.81-2.45-3.35-3.46-5.4-.11-4.42,3.44-8.32,5.07-12.35,1.47-3.64,2.73-12.42.8-15.95-.74-1.35-4.35-2.03-5.84-2.53-1.39-4.6-3.15-9.33-3.81-14.09,7.33-10.8,43.22-46.66,53.89-50.55,5.38-1.96,19.85-7.84,24.8-5.34,1.27.64,1.84,1.16,3.24,1.56,2.04.57,3.77-.2,5.3-1.4,2.07-6.61-.86-53.04-.78-64.7Z"/>
    <path class="cls-36" d="M1163.99,642.82c8.36-.38,16.74-.4,25.1-.53-.11,13.99,2.04,29.24.22,43.03-.35,2.63-.09,6.36-3.57,6.4-4.27.04-11.55-1.42-15.45-.24-8.21,2.47-11.29,9.53-21.17,9.85-5.47.18-22.92-2.69-26.76.23-5.36,4.07-6.15,14.89-13.31,19.96-8.03,5.68-9.86-2.7-17.24-3.99-1.87-.33-3.22-.44-4.78-1.61-1.68-1.27-1.83-2.42-2.08-4.48-.05-.44-.09-.88-.13-1.32-4.42-1.57-10.55-4.19-15.22-4.13-6.42.09-8.16,5.57-12.49,8.74-2.21,1.62-3.88,1.51-6.44,1.27-2.03-.19-4.06-.29-6.09-.43-.52.77-1.05,1.53-1.61,2.27-.23.3-.47.6-.7.91-3.82,5.15-12.37,4.35-15.18,8.54-1.41,2.1-2.4,6.1-3.39,8.5-3.97,9.71-7.55,21.1-13.61,29.63l-.77,1.06-9.54-.5c-12.37-1.79-25.16-1.9-37.63-2.88.1-10.69-1.14-21.77.09-32.38.77-6.66,3.08-3.59,7.25-6.96,2.13-4.15,1.51-8.72,1.39-13.27,4.85-4.55,9.22-7.18,15.15-10.1,7.73,4.22,11.2,7.48,20.12,5.55,2.27-.49,5.21-1.49,7.51-1.48,3.05.01,6.28,2.38,9.19,3.27,2.24.68,4.41.17,6.2-1.34,4.76-4.04,7.76-15.23,8.96-21.23,10.11-9.77,31.99-31.06,43.52-37.08,13.52-7.06,64.33-4.7,82.42-5.26Z"/>
    <path class="cls-36" d="M1264.16,928.77c3.11.37,4.78.66,6.84,3.11,7.55,8.94,7.56,2.74,15.11,4.94,5.86,1.71,14.61,10.95,20.11,14.56-14.23,15.37-28.55,30.67-42.94,45.89.06,16.46-1.72,10.75-10.19,22.04.33,2.22.8,4.25.16,6.47-4.87,1.61-12.27.76-17.45.71-14.44,16.4-29.22,32.5-44.33,48.3l-5.27-6.33c-3.91-1.24-9.82-2.96-12.77-5.92-2.48-2.49-2.3-4.62-2.28-7.86-8.38-10.04-33.26-64.42-34.73-76.25l1.02-1.12c1.14.49.7.21,1.7,1.01,2.55,2.03,5.41,4.98,8.75,4.71,3.07-6.2-2.12-8.9-3.31-14.65,3.24-2.93,7.05-1.65,10.77-3.21,5.04-2.11,9.98-7.62,14.71-10.71l5.08,1.49c3.93-1.06,6.58-5.76,9.11-8.92,7.92-.25,14.65,8.53,21.42,11.73,2.56,1.21,5.24.59,7.83-.22,6-1.89,10.09,1.98,15.38.68.35-.08.69-.2,1.03-.29,15.38-4.27,20.39-12.3,30.81-22.99l1.25-1.28c.37-1.62.77-2.89,1.48-4.42.22-.49.47-.98.7-1.47Z"/>
    <path class="cls-36" d="M1025.19,853.06c.61.23,1.21.53,1.84.68,2.16.51,3.23.16,5.31,1.38,4.63,10.44,13.02,33.24,14.71,44.19,1.02,6.61,3.09,60.79.65,64.35l-3.37.42c-1.41-1.36-2.63-2.45-4.35-3.4-2.86.17-4.65,1.7-6.95,3.26l-1.1.76c-3.17-.2-7.3-.74-10.35.3-19.97,6.85-39.96,38.08-57.06,50.45-3.39-3.09-5.93-5.4-10.36-6.97l-1.53-.53c-3.7-3.98-2.19-37.06-2.28-44.42-.56-7.26,1.48-11.78,2.74-18.73-1.42-2.78-3.04-2.79-5.87-3.94-1.18-4.49,3.41-7.91,3.21-12.13-.18-3.66-3.62-7.33-4.17-11.07-.51-3.47,2.57-4.62,3.09-7.45.18-.98-1.69-5.86-1.84-7.42l1.39-.23c4.1,4.65,4.58,11.07,7.82,16.17,1.19,1.87,1.46,1.68,1.67,4.09l-2.89.97.15,1.26,2.19,1.11,2.22-1.14c1.06-2.47,1.11-2.79.69-5.44-1.42-1.65-2.22-2.44-2.86-4.55l3.01-1.69c-1.15-2.61-2.3-3.91-1.59-6.72,1.65-.55.91-.47,2.77-.36,2.54.16,5.09.57,7.62.16,1.85-.29,1.09.05,2.36-1.62-.19-.17-.36-.37-.57-.52-2.12-1.53-6-2.34-8.54-2.01-1.7.22-2.91.46-4.63.21-4.99-.72-9.34-8.09-12.24-11.71.43-2.27.7-2.09,2.21-3.73.76-.83,1.49-1.69,2.29-2.49,6.12-6.17,5.17-15.07,11.36-21.38,3.15-.64,8.91,2.69,12.06,3.87,9.1,3.4,11.52-.12,19.49-3.78.42.12.84.25,1.26.37,12.34,3.5,20.42-4.85,30.44-10.55Z"/>
    <path class="cls-36" d="M1271.99,1217.2l4.08.24c5.5,5.19.34,12.04,3.95,17.04,2.62,0,5.19-.36,7.44,1.19.56,4.87,1.07,9.78.94,14.69-.28,10.58-3.11,6.32-8.28,11.4-.59,31.75-1.54,63.94.89,95.64-23.65,1.11-47.32,1.93-70.99,2.47-12.18.29-25.37-.78-37.31,1.36-1.57-5.34-5.68-6.97-6.99-11.81.57-1.79.92-3.41,1.15-5.28-1.51-3.76-5.23-6.5-8.15-9.22.15-.15.3-.31.44-.47,15.58-18.04,36.38-35.01,52.84-53.6.13-14.48-.35-28.91-.86-43.38,15.5-.37,30.53-.31,44.96-6.86l1.65-.76c5.89-2.67,9.95-7.96,14.26-12.65Z"/>
    <path class="cls-36" d="M966.79,1122.33c3.35.38,4.05,3.43,7.1,4.18,6.48,1.59,15.93-.17,22.78-.08,2.16.02,4.54-.51,6.08,1.07l-1.65,3.36c.15,2.42.44,2.5,2.05,4.36,1.18.08,2.63.1,3.8.4,3.4.86,9.59,13.27,11.57,16.54,10.76,4.52,23.59,10.47,32.99,17.36,18.78,13.78,36.1,35.95,54.28,51.73-.11,5.4,1.57,24.87-.23,28.79-1.86,4.07-10.44,4.5-13.11,10.26-.25.55-.48,1.11-.72,1.66-4.78-3.12-9.58-6.21-14.4-9.27,3.23,5.01,6.59,10.02,9.04,15.47,1.43,3.19,2.34,5.68,1.11,9.09-2.52,1.26-3,1.04-5.84.68l-1.15-1.99c-8.35-6.27-14.47-17.99-25.82-18.98-4.34,2.84-11.04,7.43-16.35,7.44-3.55-2.9-1.38-5.26-2.49-9-1.4-4.7-18.56-19.56-22.73-24.12-3.43-3.76-6.08-7.95-9.34-11.77-2.2-2.58-5.96-1.99-9.17-2.28-5.3-5.92-3.31-16.07-6.26-23.21-3.16-7.67-10.91-7.94-17.69-10.9-2.4-1.05-4.35-2.17-5.43-4.64l2-4.95c-.32-9.48-22.76-18.76-28.17-28.41-1.23-2.19-1.09-3.47-.55-5.85l1.49-.83c2.82.69,5.93,1.8,8.83,1.3,4.17-.72,7.9-9.58,10.12-12.82,2.41-3.51,3.9-3.85,7.86-4.59Z"/>
    <path class="cls-36" d="M733.94,547.43l90.96.36c15.01,0,30.5.7,45.45-.53.75.91,1.13,1.92,1.54,3.04,2.4,6.64,11.93,9.83,12.41,17.41.09,1.37-.55,1.65-1.35,2.62-1.78.45-3.33.72-4.86,1.79-1.15.81-.74.58-.98,2.27,1.13.7,2.26,1.39,3.41,2.06-1.32,1.16-2.03,1.96-2.78,3.55,3.8,6.72-2.07,10.88-.99,17.7.42,2.64,1.63,3.72,3.67,5.2,4.15.44,8.87-2.29,13.06-3.15,1.05.45,2.05.55,2.61,1.64,3.22,6.24-.4,21.97-1.85,28.88-.71,0-1.41,0-2.11.01-3.83.11-6.97.62-10.5-1.28-.92-.49-1.8-1.07-2.74-1.52-5.53-2.67-15.96-5.36-21.85-2.84-1.57.67-1.65,2.25-2.24,3.72-.56.47-1.01,1.12-1.68,1.41-5.03,2.11-76.76.44-89.03.5.36-13.62.58-27.02.33-40.64-7.81.41-15.67.21-23.48.18.02-6.61,1.67-18.21-.4-24.29-2.43-7.12-7.68-9.99-6.58-18.1Z"/>
    <path class="cls-36" d="M740.95,592.23l21.34.04c.37,8.77,2.59,30.24-1.3,37.68-1.99.04-3.18.1-5.1.74l-.11,2.18c1.26.89,2.45,1.8,3.64,2.78.14,3.25-2.28,6.35-3.9,9.08,12.35,27.66,33.71,18.99,42.82,26.84,5.74,4.94,1.1,13.44,1.9,20.14.19,1.6.27,3.2.38,4.81,2.94,4.46,5.63,7.09,10.02,10.11,3.25,2.23.16,8.78,2.68,11.9,1.87,2.31,4.61,2.29,6.37,5.38-2.31.25-4.96-.1-6.53,1.86-5,6.23,3.58,14.33,4.17,21.26-2.8,5.83-9.11,18.46-14.04,22.44-.83.67-3.39,1.23-4.49,1.63-4.92,1.54-13.62,5.36-18.44,4.07-4.17-9.89-5.98-3.76-10.09-8.33-3.51-3.9-4.94-10.64-7.61-15.23-5.34-9.18-18.32-16.79-27-22.82-.53.06-2.65.31-3.12.24-4.84-.68-5.21-13.59-7.85-17.16-2.29-3.09-6.29-5.56-8.98-8.43-21.51-22.89,8.66-30.39,7.42-46.16-1.09-13.89-11.92-27.34-10.85-41.59,1.29-17.26,19.59-6.08,26.74-14.2,2.6-2.95,1.89-5.55,1.93-9.27Z"/>
    <path class="cls-36" d="M901.75,1020.47c.57-.08,1.14-.2,1.71-.25,6.34-.5,54.6-1.1,56.71,1.64,3.46,4.51,1.94,12.66,5.71,16.23,2.22.2,3.32.23,5.31,1.33.19,4.34,1.52,11.51-.33,15.32-2.19.72-3.71,1.35-5.53,2.76-.35,1.25-.49,2.32-.29,3.62.86,5.68,6.62,23.44,10.89,26.61,2.8-1.39,3.2-4.88,6.03-6.61,2.03,1.22,3.84,2.15,6.08,2.97,2.29-.65,4.3-1.17,6.68-1.36,3.14,2.62,6.17,4.84,8.09,8.54,0,3.17-1.19,4.37-2.81,7.04.32,2.82,2.02,3.41,4.09,5.2-.43,3.56-3.8,4.41-4.58,7.15-.85,2.99.56,9.71.28,13.29-8.11,1.74-17.89.63-26.21.54-1.19-1.46-2.46-3.26-4.18-4.11-2.86-1.4-6.66-.26-9.58.63-2.53,5.11-6.91,12.83-11.5,16.17-.91-1.06-1.47-1.9-2.1-3.18-1.66-3.37-11.32-7.22-14.77-9.8-5.75-4.3-6.87-12.85-12.86-17.32-11.83-8.82-27.58-12.54-36.17-19.03-3.6-2.72-6.1-7-9.17-10.29-3.49-3.75-7.47-7.09-11.11-10.7-12.24-12.17-12.27-16.08-12.47-32.36-.01-.98-.2-2.49.08-3.44.14-.48.9-2.37,1.42-2.85,3.15-2.85,35.28-1.43,43.09-3.63,2.28-.64,4.61-2.3,6.59-3.54l.9-.57Z"/>
    <path class="cls-36" d="M857.88,626.29c5.18.06,11.94-.85,16.71,1.2l1.02,2.93c3.62,3.09,12.52,1.8,17.53,2.27,2.26,8.11-6.02,20.77-7.15,28.84-.72,5.16,1.8,12.66,2.91,17.78l-2.12,2.47c1.55,7.3,12.33,14.76,16.85,20.78,2.15,2.86,3.65,5.63,3.05,9.28-5.99,7.13-2.17,7.15-5.06,11.88-1.49.19-2.98.35-4.47.47-10.54.88-65.55.99-72.33-.79-3.18-.84-5.68-3.17-8.12-5.27l-1.13-.84c-1.57-3.77-1.05-5.4-.59-9.39-1.21-3.29-6.42-6.11-9.04-8.49-4.1-3.72-4.09-9.47-4.39-14.6,1.62-2.86,3.75-5.76,3.66-9.15-7.91-12.89-22.59-7.92-33.84-15.58-21.54-14.67-7.12-16.75-9.03-26.76,10.16-4.38,85.46,2.08,92.69-1.43,2.54-1.23,2.36-3.19,2.86-5.63Z"/>
    <path class="cls-36" d="M1179.74,807.09c2.23,3.9-.07,7.9,2.26,11.65,1.52.43,2.96.79,4.52,1.03.45.07.9.13,1.35.19l.42,1.58c-4.05,3.32-9.32,5.24-14.08,7.36-2.11.94-4.18,1.75-5.91,3.34-12.33,11.37-35.79,55.29-45.95,72.09-2.98,4.93-8.73,4.59-11.82,9.23,2.17,17.19-10.83,17.18-17.36,29.33-.16.29-.3.59-.44.89-2.84-.79-18.45-20.06-21.79-23.87-12.36-13.69-30.06-29.77-30.09-49.64.9-1.09,7.17-3.02,8.81-2.94,1.28.06,2.36,1.18,3.64,1.21,1.16.03,3.48-2.59,4.28-3.46,2.63-2.87,5.77-7.18,9.07-9.2,8.02-4.94,18.6-6.76,26.98-11.58,3.67-2.11,4.22-7.27,5.11-11.05,2.03-1.81,4.17-2.99,6.53-4.33,4.24-2.43,18.71-11.79,22.33-12.11,1.59-.14,3.93.74,5.46,1.17l1.06.3c9.59-2.48,19.43-5.58,29.15-7.35,3.81-.7,8.47-.2,12.05-1.37,1.27-.41,2.53-1.23,3.65-1.96.26-.17.51-.34.76-.52Z"/>
    <path class="cls-36" d="M814.08,726.34l58.99-.15c8.94-.06,20.86-1.5,29.44.36,2.48.54,3.41,1.32,4.66,3.42-.59,2.11-1.24,3.77-.82,5.97,2.62,2.25,5.3,2,8.5,2.41,1.09.14,3.37.44,4.07,1.52,4.28,6.59,4.56,15.45,9.76,22.27,3.31-.38,4.97-3.6,7.79-5.38,1.6-1.02,1.48-.66,3.2-.27,3.8,7.44-5.88,12.26-4.47,20.45,1.64,2.11,2.8,3,5.21,4.2,1.95.98,3.47,1.82,5.12,3.29.33,2.38.73,4.4,1.52,6.69,3.02,2.27,3.67-.12,6.86,1.29.1.39.24.78.3,1.18.96,5.76-3.93,12-6.81,16.57.27,7.73,4.83,4.91,7.81,9.84.62,1.03.04,2.14-.19,3.24l-3.26,1.88c-.52,2.95.53,4.21,1.73,6.9-.02.65,0,1.3-.06,1.95-.53,6.87-7.32,10.55-12.08,14.69l-13.29-.62c-.15-11.47.85-23.54-.33-34.94-.38-3.7-.66-6.86-3.63-9.3-9.86.82-28.84-1.21-36.89,1.16-4.56,1.34-7.09,6.74-12.08,7.43-3.25-1.4-9.14-2.99-11.78-5.06-2.93-2.3-3.02-12.17-4.77-15.88-3.74-7.95-10.11-14.86-14.17-22.76-3.57-6.95-3.9-15.85-8.66-21.95-5.21-6.68-15.38-4.29-19.62-10-2.25-3.03-2.73-6.8-2.07-10.39Z"/>
    <path class="cls-36" d="M941.61,764.43c18.18-.62,58.03.95,75.16,5.42,8.93,24.92,17.18,45.65,15.43,72.85-.21,3.26-.28,6.76-2.77,9.01-9.39-2.69-12.87,7.1-21.04,9.49-5.17,1.51-11.12-1.34-15.99.03-5.36,1.5-7.4,6.07-13.83,5.11-5.86-.87-9.86-6-16.03-5.91-1.79.6-2.55,1.09-3.79,2.58-3.52,4.23-7.32,12.41-6.7,17.89-4.47,3.43-10.81,11.64-16.06,13.11-1.85.52-4.58-.6-6.16.69-3.7,3.01-3.79,8.18-8.59,10.4-2.84,1.31-3.87,1.03-6.6-.23l-.4-1.64c2.96-3,7.85-4.36,11.72-5.92,1.88-4.36,2.88-8.95,4.6-13.36,2.35-6.04,4.41-7.31,10.34-9.85,1.34-6.64,0-16.74,2.59-22.35,3.84-8.34,11.95-8.81,12.71-19.52-1.08-1.97-2.21-3.53-1.93-5.88,1.69-1.05,2.63-1.84,3.78-3.47-.15-2.83-.22-3.32-1.77-5.67-2.14-.88-4.89-1.65-6.36-3.52-.82-1.04-.45-2.16-.41-3.39,1.62-.6,2.89-1.17,4.29-2.18,1.03-4.05,2.25-8.15,2.52-12.35.39-6-4.61-4.08-7.92-7.76-.2-2.73-.41-4.66-1.69-7.16-.99.08-2.1.22-3.09.1-2.5-.29-6.38-5.38-8.09-7.2.19-.18.38-.36.57-.55.31-.31.61-.63.92-.94,2.69-2.7,3.68-4.04,4.59-7.8Z"/>
    <path class="cls-36" d="M1085.7,602.2c4.01.11,9.37-.52,13.04,1.19,2.79,1.3,3.73,3.29,4.84,5.93.77,1.82,1.38,3.85,2.95,5.15,7.53,6.26,67.74.93,81.5.88.36,8.26.77,16.51,1.21,24.77-21.21.23-42.48.9-63.69,1.34-11.31.23-23.89-.57-35.03,1.18-3.18.5-6.16,1.73-9.02,3.17-8.81,4.45-24.23,15.04-27.35,24.26-8.01,3.15-12.74,8.87-18.56,14.9-.75,5.62-3.68,15.52-7.72,19.56-6.32,6.31-10.02-4.03-15.22-3.33-3.97.53-5.28,4.27-10.43,4.07-3.13-.12-6.04-1.01-8.05-3.59-3.48-4.47-3.91-36.7-1.61-42.08,2.76-6.44,9.83-7.67,10.58-15.47,2.72-2.85,5.09-1.03,7.09-3.34,1.98-2.29,2.25-5.38,4.75-7.55,7.43-6.45,43.72-10.71,55.55-16.53,6.74-3.31,9.18-10.18,15.18-14.51Z"/>
    <path class="cls-36" d="M1051.87,552.57c5.31,2.12,8.07,9.46,13.19,11.44,1.47.57,3.6-.92,4.99-1.55,2.59.69,3.77,1.5,5.76,3.32,1.9,1.73,3.67,3.16,5.81,4.57,3.78-.64,4.67-4.4,7.72-4.87,25.18-3.84,52.72-2.08,78.22-2.8,6.02-.17,14.33,1.68,18.73-2.55,2.81,9.13,1.9,41.86,1.69,53.09-11.83-.3-23.83.92-35.71.96-12.72.09-27.63,2.88-40.05.34-5.66-1.16-8.12-9.4-11.1-14.18l-16.56-.25c-6.38,4.98-10.15,12.07-17.75,15.69-2.54,1.21-31.17,8.57-32.9,8.44-.98-.08-1.85-.7-2.77-1.05-.18-5.83-1.78-14.52-3.77-20.06-.53-1.46-.89-2.11-.85-3.75.05-1.95,2.64-3.62,4.02-4.96.34-4.66.89-9.31,1.35-13.96,4.62-3.54,7.98-7.18,11.24-12.02.03-2.75-.28-6.3.56-8.93,1.32-4.12,4.57-5.2,8.16-6.91Z"/>
    <path class="cls-36" d="M897.15,805.71c5.32-1.29,10.41,3.05,15.77,2.36,4.53-.58,5.96-4.1,11.16-2.36,3.74,12.81,1.69,30.79,1.66,44.29l13.82.86c.84,5.11,2.4,13.58.46,18.41-1.14.89-2.26,1.81-3.4,2.69-6.25,4.86-9.69,12.3-14.65,18.34-3.05,3.72-7.65,6.78-11.45,9.73-7.26-2.22-10.02.03-16.87,1.83l-1.17-.95c.63-1.55.89-2.44,1.09-4.14-2.7-1.2-5.65.29-8.46.54-2.78.25-3.8-.4-5.89-2.09.83-2.17.33-1.41,1.82-3.19.35-.41.71-.81,1.07-1.22-.61-2.81-1.49-3.36-3.45-5.39-2.18-.14-4.2-.44-6.34-.87l.14-2.32c2.31-1.57,4.56-3.14,6.74-4.89l-.47-1.49-2.18-.41c-8.9,4.57-9.97,17.33-16.33,24.89-2.06,2.45-3.6,3.19-6.74,3.47l-3.6-4c-2.13-.27-1.37-.32-3.34-.04-.43.06-.86.14-1.3.21-2-.86-3.4-1.59-4.89-3.22-2.65-2.93-3.79-5.73-3.67-9.65,3.23-5.56,7.06-2.29,11.84-4.65.54-3.62-2.18-3.59-2.08-6.99.21-7.56,4.87-13.37,1.03-20.86-.64-1.24-.24-1.56.09-2.88,6.07-1.81,13.46-.55,19.84-1.08,7.42-5.27-9.26-21.9-6.84-32.79.67-3.03,2.44-6.26,5.15-7.85,3.71.03,6.62,4.18,10.36,5.33,2.84-.65,3.88-2.45,5.72-4.43,2.91-3.12,5.12-3.61,9.24-3.73,1.74-.05,2.97-.14,4.61-.8.51-.21,1.02-.44,1.53-.65Z"/>
    <path class="cls-36" d="M1573.78,1724.57l11.99.06c5.42,4.64,12.21,7.9,17.33,12.76,7.77,7.38,11.84,19.82,22.95,22.69,1.66.43,1.45.65,2.42,1.99.19,2.55.34,4.69,1.36,7.09l7.32,2.33c4.84,1.49,7.86,3.66,11.79,6.73-3.82,8.64-9.35,17.01-14.02,25.25.05,3.49,1.01,10.61-.37,13.73-1.65,3.72-9.07,1.7-10.59,4.56-1.49,2.79-.28,6.36-2.48,9.38-3.76-3.84-7.5-7.6-11.56-11.14-13.48-1.47-9.83-6.99-18.7-14.79-3.69-3.24-9.28-5.71-13.55-8.24-2.81-1.66-5.53-3.04-6.38-6.29,1.17-2.27,2.45-4.22,2.32-6.85l-1.59-.93-1.8,1.45c-.69,2.18-1.45,3.8-2.69,5.72-11.64,2.9-22.39-18.18-26.98-21.93-.89-.73-3.09-1.32-4.22-1.8l1.34-.38-2.24.06c1.99-19.14,18.01-26.89,19-33.99.27-1.94.61-3.46,1.12-5.35,3.37-2.32,13.67-1.73,18.23-2.11Z"/>
    <path class="cls-36" d="M827.18,742.91c1.41.36,2.78.74,4.17,1.15,5.58,7.79,8.4,17.22,11.1,26.31,1.6,5.38,9.32,10.14,9.97,14.33.25,1.66-.87,2.11-.31,4.49l3.65,2.2c3.22,6.45,4.18,14.44,5.62,21.5-9.18,21.05,8.1,22.07,5.32,35.07-6.61,2.4-14.67-.72-21.49,1.51-2.6,9.12,2.49,20.27-.63,29.68-.67,2.01-1.15,2.16-2.9,3.1-3.23-.51-6.06-2.48-8-5.1-2.32-3.14-1.43-8.21-.89-11.81l.21-1.29-2.08.05-2.64,4.43c-2.95,9.74.17,6.35.37,12.62-2.46.57-3.72,0-6.03-.79-1.8-4.52,2.1-8.86.37-13.45-1.63-4.33-5.87-5.03-6.07-10.31-.42-11.3-8.89-20.49-15.49-29.28l1.99-4.5c-1.51-4-7.12-4.57-8.72-8.34-1.43-3.37.15-4.78-2.78-8.05-3.56-3.98-9.59-7.01-12.12-11.7-2.63-4.87.01-11.23,1.64-16.05,7.22-3.74,16.58-5.48,24.41-7.79,4.29-7.53,8.93-14.68,13.8-21.84-.18-1.86-.23-3.56-.11-5.42,2.25-.9,4.71.07,7.64-.74Z"/>
    <path class="cls-36" d="M1210.53,723.94c6.67,2.52,39.81,32.33,46.4,39.09-.16,4.24-2.78,7.12-4.38,10.91-4.71,11.1,6.25,20.23,10.06,30,.15.38.27.76.41,1.14,2.2,5.89-3.15,10.67-2.16,16.46.09.57.23,1.13.35,1.7l-1.26,1.75-4.82.13c-3.86,2.68-1.41,8.81-4.07,13-1.59,0-2.54.34-3.9-.68-3.87-2.91-4.29-7.69-4.69-12.12-.04-.48-.08-.96-.11-1.44-.58-.27-1.4-.66-1.93-.83-8.5-2.67-20.73,7.22-27.76,11.46-9.1-6.35-19.43-14.8-29.77-18.6.25-16.11-.48-32.34-1.2-48.43,5.65-5.23,11.66-10.41,16.66-16.27,3.57-4.19,11.96-14.08,12.9-19.42.32-1.84-.56-5.83-.73-7.83Z"/>
    <path class="cls-36" d="M833.59,934.41c9.45,3.53,9.92,12.44,16.83,17.85,5.96,4.67,13.94,1.45,19.86,4.64,5.98,3.22,4.86,7.37,8.56,11.7,1.16,1.36,4.79,3.17,6.39,4.23,20.51-8.04,42.21-13.02,62.87-20.75.14,9.79-1.77,48.69,1.53,55.04,2.13,4.1,7.74,5.93,10.82,9.88.22.28.43.57.65.85-18.72.86-37.66-.86-56.32.52-13.23.98-15.84,7.2-31.14,2.98-4.19-4.63-5.04-5.46-11.16-7.02-.14-.31-.28-.63-.41-.94l-.65-1.59c-4.62-11.12-5.06-31.5-14.18-39.37-2.01.08-2.84.23-4.7-.65.1-.54.25-1.45.49-1.93,1.02-2,1.6-2.7,2.04-5.12-.67-3.45-3.59-5.83-5.96-8.28l-10.29-1.59-.38-1.3c.82-1,1.63-1.99,2.39-3.03,2.43-3.33.32-6.55-.05-10.27-.3-2.98.83-3.8,2.8-5.84Z"/>
    <path class="cls-36" d="M940.42,895.89l.7-.28c2.08.26,2.11.21,3.55,1.71-1.92,2.63-4.57,2.88-7.61,3.94-1.45,1.86-1.5,1.73-1.3,4.07,2.02,2.17,3.49,4.25,6.29,5.37l3.44-1.99.37.96c-.27.58-.55,1.16-.81,1.74-2.59,5.75.48,10.72,2.52,16.26-.76,2.96-1.59,5.94-2.21,8.94-.61,2.96-1.53,4.89.1,7.46l4.87.86.7,1.1c-4.1,7.34-54.09,20.09-65.25,24.16-9.04-5.01-5.03-9.66-14.36-15.74-7.84-.25-13.33-1.19-20.36-4.8l-.21-2.01c-1.77-1.76-3.52-3.48-5-5.49-1.19-1.61-2.27-3.32-3.77-4.66-5.22-4.66-16.92-7.32-23.73-6.53-.27.03-.54.08-.81.12-1.68-2.17-2.6-3.45-3.27-6.18,4.36-4.12,24.32-20.72,29.18-20.84,5.11-.12,8.16,3.67,11.54,6.94,21.83-13.68,37.44-2.28,59.9,1.38,4.38.71,8.79,1.2,12.49-1.46.73-2.73,1.45-6.21,2.94-8.62,2.77-4.5,5.33-5.03,10.09-6.37Z"/>
    <path class="cls-36" d="M1028.11,582.18c5.81,6.65-5.91,13.63-5.01,19.73,2.24,2.11,3.53,3.13,4.08,6.27.58,3.28,3,14.71,1.75,17.56-.06.14-3.9,1.34-4.34,1.47-16.05,5.03-16.35,8.8-25.66,21.86-1.94.76-5.18,1.81-6.45,3.57-7.92,11.1,1.58,39.18-3.76,46.15l-1.5-.56c-6.7.93-15.15,7.65-21.59,10.49-4.54,2-11.71,3.08-15.6,5.56-1.59,1.01-3.09,2.78-4.41,4.13l-1.3-1.4c-.58-2.97-.92-4.71.22-7.65-1.66-3.36-3.52-6.51-3.79-10.31,1.02-2.25,2.09-4.51,2.4-6.99.79-6.44-6.18-26.42-6.34-35.74-.03-1.75.2-5.06,1.18-6.55,2.18-3.34,26.06-5.11,31.66-8.67,12.99-8.26,9.39-26.66,18.81-36.49,6.37,3.53,6.44-1.32,12.18-2.41,1.54.59,3.37,1.47,4.99,1.74,2.59.43,2.99-.02,4.88-1.52.27-1.66.44-4.23,1.39-5.64,2.22-3.32,12.55-10.93,16.2-14.61Z"/>
    <path class="cls-36" d="M892.73,648.53c13.29.91,26.57-1,39.8.04.51.39,1.18.64,1.54,1.18.36.54,3.98,32.78,6.92,40.33.15.39.31.77.46,1.15l-2.4,4.15c-.36,6.25,2.54,25.29,4.6,30.81l1.08.38c.39-.79.82-1.56,1.18-2.36.22-.5.37-1.03.61-1.52,2.66-5.45,11-10.36,16.71-11.78,2.37-.59,3.36-.46,5.38.82.41,1.72.95,3.57,1.08,5.34.52,6.9-5.76,4.93-9.22,8.39-1.83,10.41-.68,22.22-.6,32.82-.97,1.18-2,2.21-3.09,3.28-4.18.88-10.05,2.8-14.02.7,0-.94,0-1.88-.05-2.82-.21-3.42-1.2-4.31-3.6-6.48-3.62.16-6.25,2.64-9.43,4.38-5-2.62-6.4-14.86-9.37-19.93-2.01-1.19-3-1.18-5.22-.92-1.6.19-2.64.36-4.27.06-1.48-.27-1.65-1.08-2.5-2.21.66-1.29,1.34-2.5,2.11-3.73l.87-1.38c-1.11-2.13-.38-1.32-2.45-2.73-.31-.21-1.46-.93-1.76-1.17-2.01-1.65-2.5-2.33-2.38-5.01.13-2.86,1.34-4.14,3.33-6.07,1.59-1.54,2.03-1.64,2.69-3.83-1.16-.95-2.39-1.76-3.09-3.13-1.48-2.9-2.56-5.91-4.45-8.62-4.11-5.91-9.66-10.69-12.13-17.65-4.05-11.37-3.45-21.68,1.65-32.47Z"/>
    <path class="cls-36" d="M1174.54,766.55c1.36.34,2.62.83,3.94,1.31,3.67,6.61,2.07,29.1,2.31,37.19-1.25.49-2.51.94-3.76,1.44-5.95,2.35-10.74.33-16.49,1.48-4.28.85-7.86,4.24-12.18,5.24-10.5,2.42-20.41,1.39-30.58,5.85-6.34,2.78-13.28,6.58-18.17,11.53-4.09,4.14-5.58,11.35-11.12,13.73-15.33,6.59-23.3,9.1-35.61,20.91-3.37,1.18-7.71,1.92-11.26,1.21-2.97-.59-3.08-1.91-4.34-4.38-.22-.72-.43-1.44-.67-2.15-3.82-11.61-4.85-36.06-3.02-48.21,4.49-5.76,9.59-1.77,15.33-3.66,4.69-1.54,8.77-5.87,13.39-7.83,9.84-4.17,23.27,7.08,31.87,10.43l1.42.55c9.06-2.12,49.88-10.59,55.09-14.61,1.48-1.14,2.7-3.36,3.77-4.88,5.38-7.64,7.81-9.16,16.43-12.15,3.59-3.38,3.49-8.37,3.66-12.98Z"/>
    <path class="cls-36" d="M725.35,850.14c3.76,1.23,8.29.03,11.48,1.59,4.18,2.03,7.69,5.68,11.02,8.83,16.44,15.55,17.3,14.61,39.13,18.09,6.36,4.91,10.6,10.39,13.92,17.66-.31,1.99-.61,3.99-.89,5.98-.12.82-.27,1.64-.36,2.47-.36,3.26.36,5.65,2.45,8.16,1.09,1.32,1.63,1.92,1.86,3.71-1.94,2.17-4.17,4.38-5.85,6.75-4.67,6.59,6.28,8.54,7.16,13.82-1.59-.97-2.6-1.53-4.49-1.84-1.95-.32-1.18-.34-3,.87-.32,4.71,4.06,7.42,3.85,12.11-.83.46-1.07.66-2.12.88-7.96,1.65-15.01-10.26-21.02-14.6-3.72-2.69-6.8-1.82-11-1.09-.44.08-.87.17-1.31.25l-1.03-1.51c-.09-.15-.19-.3-.28-.45-2.27-3.79-5.83-5.44-9.54-7.63-5.74-14.28-10.52-8.83-17.99-17.59-2.76-3.23-3.16-7.68-6.1-10.94-6.77,1.8-3.44,12.41-7.83,17.18-1.13,1.23-2.25.93-3.8,1.08-3.45-5.04,9.43-23.49,9.39-30.67-.01-2.11-1.39-5.09-1.61-7.43,1.4.89.74.32,1.98,1.9,6.73,8.6,10.7,11.44,19.56,17.88-3.68-5.52-14.02-16.58-15.18-22.24-.24-1.16-.16-3.41-.76-4.42-3.46-5.91-9.54-6.4-10.2-14.82-.15-2,1.26-2.62,2.55-3.98Z"/>
    <path class="cls-36" d="M802.09,954.58c3.18-.36,5.85-.45,9.02-.02,2.86,1.73,5.21,4.3,6.23,7.57,1.09,3.49.05,6.34-1.8,9.26-3.03,1.86-4.72,1.54-8.23,1.62-2.14.05-4.16-.19-6.28-.43-.99-1.12-7.15-6.77-6.36-10.8.65-3.36,4.44-4.16,5.63-5.96-.16-.35,1.92-.88,1.78-1.24Z"/>
    <path d="M874.17,887.14c1.76.36,3.19.92,4.85,1.59l.41,1.91c-1.72,2.31-3.94,2.58-6.59,3.31-1.67.46-.95-.01-2.07,1.29,1.02,2.08,1.3,2.29,3.26,3.54,2.69.09,5.68-.04,8.2,1.01.43.18.85.38,1.28.57,1.72-.43,3.11-.63,4.89-.6l.77,1.84c-2.3,1.5-2.61,1.34-5.39,1.2-10.45-2.28-16.28-.98-26.08,2.88,5.63-5.68,9.68-15.18,16.46-18.54Z"/>
    <path class="cls-14" d="M1877.99,1813.54l41.69-2.68,68.35-5.76,57.09-4.42,34.11-2.7,23.31-2.47,12.59-1.24,6.67-.54-1.32.6s-13.47,2.4-13.87,5.68c-.59,4.85,3,10.31,3.5,12.81l-4.76,8.42c6.81,4.35,8.91,4.84,10.2,10.24,2.36,9.87-2.21,30.23-1.55,33.03,0,0,2.12.93,4.18,3.63,1.37,1.79,2.32,4.97,4.04,6.95.11.13.21.46.35.37,1.48-1.01,1.34-.91,1.82-1.21.96-.6,1.43-.79,1.43-.79,0,0,2.35,2.29,6.2,2.16,3.65-.12,8.09-3.34,12.46-1.03,6.58,3.48,12.67,15.26,12.9,35.36,0,0-11.58,10.09-8.66,18.41l-3.27,6.43-28.88,4.51-32.64,4.14-50.05,7.69-43.81,7.03-54.72,9-34.54,5.8-15.79,2.73-5.54-89.32,3.18-2.74-.04-5.32-1.33-17.37-1.13-18.1-.86-14.87-.95-11.05-.38-3.38Z"/>
    <path class="cls-14" d="M829.67,1083.18s2.51-3.22,6.23-4.28,7.12-5,7.12-5c0,0,8.76-.61,10.4-.58,1.47.03,2.07-.97,2.07-.97l.79-5.21s2.17.09,5.14,2.38,15.68,16.21,18.28,18.39.8.85,4.45,3.51,24.45,11.31,27.79,13.93c7.55,4.37,8.38,7.3,8.96,7.49s10.45,15.63,12.2,16.98,2.33,1.69,2.33,1.69c0,0,5.61,1.91,6.59,2.34s2.42,1.26,2.42,1.26l.12,1.68-1.64.47s-2.3-2.28-8.52-2.69-14.32,1.57-14.32,1.57c0,0-6.05,5.32-8.05,5.89s-.28,2.16-2.89-.18-6.96-9.11-9-12.12c-2.52-3.72-3.8-6.51-3.8-6.51l2.01-2.6-2.1-2.42,1.85-6.46-1.2-1.24s-2.91-.02-3.44,1.11-.27,5.03-.27,5.03c0,0,.07,1.64-.48,1.76s-1.39-.38-1.39-.38l-.33-3.18-.02-2.42-1.44-1.07s-.65.2-1.33,1.59-1.04,5.44-1.04,5.44l-1.57-.66-.2-5.05-1.68-.64s-1.1,1.53-.89,3.88,3.75,7.23,3.75,7.23c0,0-2.62,1.66-9.47,2.37-2.68.28-8.59.66-11.62.28-4.71-.59-6.13-2.16-6.13-2.16l.53-1.07s.15-.65-.54-1.3c-.45-.43-.35-.52-1.55-1.44-3.11-2.37-6.29-4.23-6.29-4.23l-3.23-1.03-1.54-2.4-7.31-6.31s-5.3-6.49-7.53-12.9c-3.05-8.06-2.23-9.77-2.23-9.77Z"/>
    <path class="cls-14" d="M800.18,974.61s8.28-.82,11.62-.11c3.35.71,3.17,1.1,3.89,1.54s1.62,2.4,1.62,2.4c0,0-.88,5.51-.5,8.73.63,5.38,3.3,8.2,3.62,8.54,1.67,1.72,7.47,4.13,8.4,4.79,1.61.8,3.66,2.62,3.66,2.62l4.68-.78,1.28,1.39s-.91,3.01-.35,3.64c.52,1.6,4.61,1.24,5.79,1.79,1.46.09,2.32.81,2.32.81l-1.82,3.47s.19.58,1.67,1.26c1.47.68,7.64,1.55,9.41,2.37,2.99.77,3.77,3.07,3.98,3.22.54.61.54,3.28.54,3.28l-1.51,1.11s-6.92.55-8.2,1.68-.27.33-.58.67c-2.63,5.7-2.65,11.66-2.58,11.83.04,9.39,5.2,19.68,5.2,19.68,0,0,1.51,3.19,1.65,5.13.55,2.14.26,8.57.26,8.57l-7.52-.11s-4.4.45-5.46,1.11c-1.42,2.2-2.5,2.51-3.27,3.17-1.76.96-4.37.85-6.66,1.1s-3.68,1.78-3.68,1.78c-1.25,1.86.88,7.49.93,8.36,1.15,4.27.65,5.35.65,5.35l-1.81-.81-6.24-7.79s-4.26-5.27-5.47-8.09c-2.59-5.41-1.8-12.37-1.8-12.37,0,0,.33-7.73,1.16-11.94.36-1.54,1.15-10.19,1.15-10.19l-.82-3.52-2.31-5.3s-2.18-4.43-2.83-6.26-1.75-5.97-1.75-5.97c0,0-1.08-1.97-1.55-2.44s-6.12-4.42-7.35-6.4c-1.76-2.4-1.64-5.76-1.64-5.99-.28-5.08,2.37-14.6,3.31-19.05.58-2.73-1.08-12.27-1.08-12.27Z"/>
    <text class="cls-25" transform="translate(1613.93 587.91)"><tspan class="cls-17" x="0" y="0">N</tspan><tspan class="cls-5" x="28.52" y="0">ev</tspan><tspan class="cls-17" x="71.23" y="0">ada</tspan></text>
  </g>
  <g id="Counties">
    <text class="cls-20" transform="translate(747.57 177.43)"><tspan class="cls-1" x="0" y="0">Siski</tspan><tspan class="cls-42" x="44.62" y="0">y</tspan><tspan class="cls-27" x="55.31" y="0">ou</tspan></text>
    <text class="cls-3" transform="translate(1029.73 184.59)"><tspan x="0" y="0">Modoc</tspan></text>
    <text class="cls-20" transform="translate(563.48 138.84)"><tspan class="cls-1"><tspan x="0" y="0">Del </tspan></tspan><tspan class="cls-1" x="0" y="26.4">No</tspan><tspan class="cls-7" x="27.68" y="26.4">r</tspan><tspan class="cls-1" x="35.62" y="26.4">te</tspan></text>
    <text class="cls-3" transform="translate(535.54 410.23)"><tspan x="0" y="0">Humbolt</tspan></text>
    <text class="cls-20" transform="translate(663.28 376.12)"><tspan class="cls-18" x="0" y="0">T</tspan><tspan class="cls-1" x="11.42" y="0">rini</tspan><tspan class="cls-35" x="39.95" y="0">t</tspan><tspan class="cls-27" x="47.43" y="0">y</tspan></text>
    <text class="cls-20" transform="translate(840.74 353.37)"><tspan class="cls-1" x="0" y="0">Shas</tspan><tspan class="cls-29" x="48.07" y="0">t</tspan><tspan class="cls-1" x="55.33" y="0">a</tspan></text>
    <text class="cls-20" transform="translate(1051.53 363.89)"><tspan class="cls-44" x="0" y="0">L</tspan><tspan class="cls-1" x="11.77" y="0">assen</tspan></text>
    <text class="cls-3" transform="translate(611.87 581.32)"><tspan x="0" y="0">Mendocino</tspan></text>
    <text class="cls-20" transform="translate(798.71 487.01)"><tspan class="cls-15" x="0" y="0">T</tspan><tspan class="cls-1" x="11.09" y="0">ehama</tspan></text>
    <text class="cls-3" transform="translate(1018.49 517.08)"><tspan x="0" y="0">Plumas</tspan></text>
    <text class="cls-3" transform="translate(781.2 597.89)"><tspan x="0" y="0">Glenn</tspan></text>
    <text class="cls-3" transform="translate(908.01 584.21)"><tspan x="0" y="0">Butte</tspan></text>
    <text class="cls-3" transform="translate(1092.22 593.35)"><tspan x="0" y="0">Sierra</tspan></text>
    <text class="cls-20" transform="translate(737 702.57)"><tspan class="cls-44" x="0" y="0">L</tspan><tspan class="cls-1" x="11.77" y="0">a</tspan><tspan class="cls-39" x="23.12" y="0">k</tspan><tspan class="cls-1" x="33.64" y="0">e</tspan></text>
    <text class="cls-20" transform="translate(810.73 691.88)"><tspan class="cls-1" x="0" y="0">Colu</tspan><tspan class="cls-29" x="44.2" y="0">s</tspan><tspan class="cls-1" x="55.31" y="0">a</tspan></text>
    <text class="cls-24" transform="translate(624.45 963.65)"><tspan class="cls-28" x="0" y="0">S</tspan><tspan class="cls-27" x="10.43" y="0">an </tspan><tspan class="cls-4" x="36.45" y="0">F</tspan><tspan class="cls-44" x="46.11" y="0">r</tspan><tspan class="cls-1" x="52.71" y="0">ancis</tspan><tspan class="cls-38" x="96.82" y="0">c</tspan><tspan class="cls-1" x="106.06" y="0">o</tspan></text>
    <text class="cls-22" transform="translate(912.04 675.53) rotate(78.11)"><tspan x="0" y="0">Sutter</tspan></text>
    <text class="cls-20" transform="translate(936.81 670.24)"><tspan class="cls-33" x="0" y="0">Y</tspan><tspan class="cls-1" x="11.79" y="0">uba</tspan></text>
    <text class="cls-20" transform="translate(1067.14 636.25)"><tspan class="cls-1" x="0" y="0">N</tspan><tspan class="cls-42" x="14.94" y="0">ev</tspan><tspan class="cls-1" x="37.31" y="0">ada</tspan></text>
    <text class="cls-3" transform="translate(1079.7 679.65)"><tspan x="0" y="0">Placer</tspan></text>
    <text class="cls-3" transform="translate(1059.15 762.34)"><tspan x="0" y="0">El Dorado</tspan></text>
    <text class="cls-3" transform="translate(677.17 796.77)"><tspan x="0" y="0">Sonoma</tspan></text>
    <text class="cls-3" transform="translate(798.8 805.81)"><tspan x="0" y="0">Napa</tspan></text>
    <text class="cls-20" transform="translate(869.57 777.78)"><tspan class="cls-13" x="0" y="0">Y</tspan><tspan class="cls-1" x="11.13" y="0">olo</tspan></text>
    <g>
      <path d="M971.3,803.91c0-.41-.07-.79-.22-1.15s-.43-.67-.84-.95-1.01-.47-1.8-.61l-1.98-.35c-1.03-.19-1.9-.45-2.63-.78s-1.28-.79-1.66-1.4c-.38-.6-.57-1.39-.57-2.35s.26-1.77.77-2.42c.51-.65,1.21-1.12,2.08-1.44.87-.32,1.85-.47,2.94-.47s1.91.11,2.61.34c.7.23,1.26.54,1.69.92s.77.82,1.01,1.31c.24.48.41.98.52,1.5l-1.89.37c-.16-.6-.39-1.1-.67-1.51-.29-.4-.68-.71-1.19-.91-.51-.21-1.18-.31-2.04-.31-.95,0-1.71.11-2.25.34-.55.23-.94.53-1.18.91-.23.38-.35.81-.35,1.3,0,.76.21,1.34.63,1.74.42.4,1.17.7,2.26.9l2.2.4c1.63.29,2.82.8,3.59,1.52s1.14,1.77,1.14,3.15c0,.84-.21,1.6-.64,2.28-.43.68-1.06,1.23-1.91,1.64-.85.41-1.92.62-3.21.62-1.85,0-3.34-.38-4.49-1.15-1.14-.77-1.8-2.01-1.96-3.71h2.02c.18,1.08.61,1.88,1.31,2.38.7.5,1.73.75,3.11.75.92,0,1.65-.13,2.18-.39.53-.26.9-.6,1.11-1.03.21-.43.32-.91.32-1.42Z"/>
      <path d="M974.8,804.95c0-.78.17-1.41.5-1.89.33-.48.77-.87,1.32-1.14.55-.28,1.17-.48,1.87-.59.7-.12,1.4-.19,2.12-.22l1.96-.07v-.44c0-.97-.21-1.67-.62-2.09-.41-.43-1.08-.64-2-.64s-1.58.15-2,.45c-.43.3-.7.71-.84,1.24l-1.74-.2c.21-1.04.7-1.8,1.47-2.28.78-.48,1.83-.71,3.17-.71,1.64,0,2.79.38,3.45,1.14s.99,1.83.99,3.19v7.39h-1.85v-1.56c-.41.5-.93.93-1.56,1.29-.63.36-1.42.54-2.35.54-1.14,0-2.08-.28-2.81-.85s-1.09-1.42-1.09-2.56ZM976.75,804.9c0,.57.17,1.03.52,1.38.34.34.91.52,1.71.52,1.07,0,1.94-.26,2.6-.79.66-.53.99-1.31.99-2.33v-1.28l-1.83.07c-1.03.03-1.83.14-2.41.34s-.99.47-1.22.81c-.23.34-.35.77-.35,1.29Z"/>
      <path d="M986.5,802.44c0-1.22.22-2.28.66-3.19.44-.91,1.07-1.62,1.88-2.12.81-.51,1.79-.76,2.92-.76,1.35,0,2.41.33,3.17,1,.76.67,1.24,1.59,1.43,2.76l-1.91.35c-.15-.73-.42-1.34-.81-1.81s-1.04-.72-1.94-.72c-.81,0-1.46.2-1.95.59-.49.4-.85.93-1.08,1.59s-.34,1.42-.34,2.25.11,1.57.32,2.25c.21.68.56,1.22,1.06,1.62.49.4,1.15.59,1.97.59.92,0,1.61-.23,2.06-.7.45-.47.74-1.11.87-1.91h1.94c-.19,1.29-.69,2.31-1.5,3.07-.81.76-1.94,1.13-3.41,1.13-1.73,0-3.05-.54-3.96-1.63-.91-1.08-1.36-2.54-1.36-4.38Z"/>
      <path d="M998.69,796.72h1.89v1.76c.42-.63.92-1.11,1.5-1.45.57-.34,1.18-.51,1.83-.51.43,0,.76.03,1.01.09l-.24,1.78c-.15-.03-.29-.05-.44-.08-.15-.02-.31-.03-.48-.03-.35,0-.71.06-1.07.19s-.71.33-1.04.63c-.32.28-.58.6-.76.97s-.27.79-.27,1.28v6.75h-1.91v-11.37Z"/>
      <path d="M1005.51,804.95c0-.78.17-1.41.5-1.89.33-.48.77-.87,1.32-1.14.55-.28,1.17-.48,1.87-.59.7-.12,1.4-.19,2.12-.22l1.96-.07v-.44c0-.97-.21-1.67-.62-2.09-.41-.43-1.08-.64-2-.64s-1.58.15-2,.45c-.43.3-.7.71-.84,1.24l-1.74-.2c.21-1.04.7-1.8,1.47-2.28.78-.48,1.83-.71,3.17-.71,1.64,0,2.79.38,3.45,1.14s.99,1.83.99,3.19v7.39h-1.85v-1.56c-.41.5-.93.93-1.56,1.29-.63.36-1.42.54-2.35.54-1.14,0-2.08-.28-2.81-.85s-1.09-1.42-1.09-2.56ZM1007.46,804.9c0,.57.17,1.03.52,1.38.34.34.91.52,1.71.52,1.07,0,1.94-.26,2.6-.79.66-.53.99-1.31.99-2.33v-1.28l-1.83.07c-1.03.03-1.83.14-2.41.34s-.99.47-1.22.81c-.23.34-.35.77-.35,1.29Z"/>
      <path d="M1017.17,800.7h6.47v1.91h-6.47v-1.91Z"/>
      <path d="M961.86,823.12h1.89v1.74c.51-.7,1.08-1.23,1.69-1.57.62-.34,1.25-.52,1.89-.52.85,0,1.54.18,2.06.55.52.37.91.89,1.16,1.58,1.04-1.42,2.33-2.13,3.87-2.13,1.11,0,1.98.3,2.58.91.61.61.91,1.59.91,2.94v7.88h-1.91v-7.44c0-1.04-.17-1.74-.52-2.1-.34-.36-.84-.54-1.48-.54-.32,0-.67.06-1.04.18-.37.12-.74.32-1.09.62-.29.25-.54.55-.73.9-.19.35-.29.75-.29,1.21v7.17h-1.91v-7.41c0-1-.17-1.69-.52-2.08-.34-.39-.84-.58-1.48-.58-.75,0-1.45.31-2.11.92-.25.24-.49.54-.71.9-.23.37-.34.86-.34,1.47v6.78h-1.91v-11.37Z"/>
      <path d="M979.94,828.88c0-1.32.23-2.43.69-3.34s1.1-1.6,1.9-2.07c.81-.47,1.73-.7,2.77-.7,1.17,0,2.13.24,2.86.71.73.48,1.28,1.13,1.63,1.97s.53,1.79.53,2.86v.97h-8.45c.06,1.23.38,2.21.96,2.94.58.73,1.4,1.09,2.47,1.09.95,0,1.65-.18,2.1-.54s.74-.85.89-1.46h1.85c-.19,1.09-.68,1.95-1.46,2.58-.79.64-1.91.96-3.38.96-1.72,0-3.04-.53-3.97-1.58-.93-1.06-1.4-2.51-1.4-4.38ZM982.36,826.03c-.23.55-.38,1.15-.44,1.81h6.47c-.06-1.16-.3-2.05-.74-2.67-.43-.62-1.22-.93-2.37-.93-.78,0-1.4.16-1.87.48-.47.32-.82.76-1.06,1.31Z"/>
      <path d="M992.37,823.12h1.89v1.74c.59-.75,1.21-1.28,1.88-1.61.67-.32,1.37-.48,2.1-.48,1.29,0,2.25.36,2.87,1.07.62.71.93,1.74.93,3.09v7.57h-1.91v-7.19c0-1.06-.19-1.8-.58-2.23-.39-.43-.97-.65-1.75-.65-.41,0-.83.07-1.25.22-.43.15-.81.38-1.14.7-.37.32-.65.66-.84,1.02s-.29.82-.29,1.4v6.73h-1.91v-11.37Z"/>
      <path d="M1005.09,830.8v-6.16h-1.76v-1.52h1.76v-3.1h1.91v3.1h3.01v1.52h-3.01v6.67c0,.56.12,1,.37,1.34.25.34.63.51,1.14.51.32,0,.61-.03.86-.08.25-.05.47-.11.66-.17l.33,1.47c-.29.1-.61.19-.96.25-.34.07-.75.1-1.22.1-.85,0-1.5-.17-1.95-.51-.45-.34-.75-.8-.91-1.4-.16-.59-.24-1.27-.24-2.04Z"/>
      <path d="M1011.21,828.84c0-1.25.23-2.32.68-3.22.45-.9,1.1-1.6,1.94-2.1.84-.5,1.81-.75,2.93-.75s2.12.24,2.94.73c.81.48,1.44,1.17,1.88,2.07.44.9.66,1.96.66,3.19s-.22,2.33-.67,3.23c-.45.91-1.09,1.61-1.91,2.11-.83.5-1.81.75-2.96.75-1.73,0-3.08-.54-4.04-1.61-.96-1.07-1.44-2.54-1.44-4.4ZM1013.23,828.79c0,1.31.27,2.38.81,3.21.54.84,1.43,1.25,2.66,1.25.82,0,1.49-.19,2-.57.51-.38.89-.91,1.13-1.59.24-.68.36-1.46.36-2.32,0-1.3-.27-2.37-.83-3.19-.55-.82-1.44-1.23-2.67-1.23s-2.1.42-2.65,1.24c-.55.83-.83,1.9-.83,3.2Z"/>
    </g>
    <text class="cls-3" transform="translate(1033.56 824.6)"><tspan x="0" y="0">Amador</tspan></text>
    <text class="cls-3" transform="translate(1187.05 796.3)"><tspan x="0" y="0">Alpine</tspan></text>
    <text class="cls-3" transform="translate(742.57 912.11)"><tspan x="0" y="0">Marin</tspan></text>
    <text class="cls-3" transform="translate(857.63 867.04)"><tspan x="0" y="0">Solano</tspan></text>
    <text class="cls-3" transform="translate(980.96 916.57)"><tspan x="0" y="0">San </tspan><tspan x="-20.35" y="26.4">Joaquin</tspan></text>
    <text class="cls-21" transform="translate(1075.92 905.64) rotate(-41.96)"><tspan class="cls-1" x="0" y="0">Cal</tspan><tspan class="cls-44" x="30.95" y="0">a</tspan><tspan class="cls-42" x="42.2" y="0">v</tspan><tspan class="cls-27" x="52.84" y="0">eras</tspan></text>
    <text class="cls-20" transform="translate(1151.58 910.4)"><tspan class="cls-31" x="0" y="0">T</tspan><tspan class="cls-1" x="11.31" y="0">uolumne</tspan></text>
    <text class="cls-3" transform="translate(1347.26 933.55)"><tspan x="0" y="0">Mono</tspan></text>
    <text class="cls-23" transform="translate(864.29 928.65)"><tspan class="cls-26" x="0" y="0">C</tspan><tspan class="cls-1" x="12.03" y="0">o</tspan><tspan class="cls-16" x="23.63" y="0">n</tspan><tspan class="cls-1" x="35.27" y="0">t</tspan><tspan class="cls-44" x="42.06" y="0">r</tspan><tspan class="cls-1" x="48.66" y="0">a </tspan><tspan class="cls-26" x="5" y="26.4">C</tspan><tspan class="cls-1" x="17.04" y="26.4">osta</tspan></text>
    <text class="cls-2" transform="translate(670.33 1021.94)"><tspan x="0" y="0">San Mateo</tspan></text>
    <text class="cls-21" transform="translate(700.6 1111.11)"><tspan class="cls-1" x="0" y="0">San</tspan><tspan class="cls-29" x="37.07" y="0">t</tspan><tspan class="cls-1" x="44.33" y="0">a Cr</tspan><tspan class="cls-30" x="82.78" y="0">u</tspan><tspan class="cls-1" x="95.08" y="0">z</tspan></text>
    <text class="cls-23" transform="translate(858.96 993.69)"><tspan class="cls-8" x="0" y="0">A</tspan><tspan class="cls-1" x="12.91" y="0">lameda</tspan></text>
    <text class="cls-20" transform="translate(893.26 1058.07)"><tspan class="cls-1" x="0" y="0">San</tspan><tspan class="cls-29" x="37.07" y="0">t</tspan><tspan class="cls-1" x="44.33" y="0">a</tspan><tspan class="cls-1"><tspan x="2.91" y="26.4">Clara</tspan></tspan></text>
    <text class="cls-20" transform="translate(985.66 1009.25)"><tspan class="cls-1" x="0" y="0">S</tspan><tspan class="cls-29" x="13.66" y="0">t</tspan><tspan class="cls-27" x="20.92" y="0">anislaus</tspan></text>
    <text class="cls-20" transform="translate(1049.78 1076.77)"><tspan class="cls-1" x="0" y="0">Me</tspan><tspan class="cls-37" x="30.18" y="0">r</tspan><tspan class="cls-1" x="37.33" y="0">ced</tspan></text>
    <text class="cls-20" transform="translate(1158.72 1000.92)"><tspan class="cls-1" x="0" y="0">Maripo</tspan><tspan class="cls-32" x="66.88" y="0">s</tspan><tspan class="cls-1" x="77.99" y="0">a</tspan></text>
    <text class="cls-3" transform="translate(1158.72 1114.05)"><tspan x="0" y="0">Madera</tspan></text>
    <text class="cls-20" transform="translate(1215.34 1173.48)"><tspan class="cls-1" x="0" y="0">F</tspan><tspan class="cls-43" x="11.92" y="0">r</tspan><tspan class="cls-27" x="19.07" y="0">e</tspan><tspan class="cls-29" x="31.13" y="0">s</tspan><tspan class="cls-1" x="42.24" y="0">no</tspan></text>
    <text class="cls-3" transform="translate(1012.26 1195.24)"><tspan x="0" y="0">San </tspan><tspan x="0" y="26.4">Benito</tspan></text>
    <text class="cls-20" transform="translate(980.86 1310.27)"><tspan class="cls-1" x="0" y="0">Monte</tspan><tspan class="cls-43" x="62.13" y="0">r</tspan><tspan class="cls-42" x="69.28" y="0">e</tspan><tspan class="cls-1" x="81" y="0">y</tspan></text>
    <text class="cls-3" transform="translate(1208.2 1314.83)"><tspan x="0" y="0">Kings</tspan></text>
    <text class="cls-20" transform="translate(1366.3 1281.7)"><tspan class="cls-31" x="0" y="0">T</tspan><tspan class="cls-1" x="11.31" y="0">ula</tspan><tspan class="cls-43" x="38.98" y="0">r</tspan><tspan class="cls-1" x="46.13" y="0">e</tspan></text>
    <text class="cls-20" transform="translate(1592.32 1199.41)"><tspan class="cls-1" x="0" y="0">I</tspan><tspan class="cls-44" x="5.02" y="0">n</tspan><tspan class="cls-40" x="16.96" y="0">y</tspan><tspan class="cls-1" x="27.65" y="0">o</tspan></text>
    <text class="cls-20" transform="translate(1100.95 1437.65)"><tspan class="cls-1"><tspan x="0" y="0">San Luis </tspan></tspan><tspan class="cls-1" x="10.74" y="26.4">Obi</tspan><tspan class="cls-29" x="44.2" y="26.4">s</tspan><tspan class="cls-1" x="55.31" y="26.4">po</tspan></text>
    <text class="cls-20" transform="translate(1144.21 1593.01)"><tspan class="cls-1" x="0" y="0">San</tspan><tspan class="cls-29" x="37.07" y="0">t</tspan><tspan class="cls-1" x="44.33" y="0">a Barbara</tspan></text>
    <text class="cls-20" transform="translate(1410.85 1457.44)"><tspan class="cls-41" x="0" y="0">K</tspan><tspan class="cls-1" x="13.38" y="0">ern</tspan></text>
    <text class="cls-20" transform="translate(1326.34 1636.98)"><tspan class="cls-18" x="0" y="0">V</tspan><tspan class="cls-1" x="12.85" y="0">entura</tspan></text>
    <text class="cls-3" transform="translate(1460.51 1645.84)"><tspan x="0" y="0">Los Angeles</tspan></text>
    <text class="cls-3" transform="translate(1553.27 1774.01)"><tspan x="0" y="0">Orange</tspan></text>
    <text class="cls-20" transform="translate(1764.64 1522.68)"><tspan class="cls-1" x="0" y="0">San Berna</tspan><tspan class="cls-43" x="97.92" y="0">r</tspan><tspan class="cls-27" x="105.07" y="0">dino</tspan></text>
    <text class="cls-20" transform="translate(1841.66 1754.42)"><tspan class="cls-1" x="0" y="0">Ri</tspan><tspan class="cls-40" x="17.89" y="0">v</tspan><tspan class="cls-1" x="28.53" y="0">erside</tspan></text>
    <text class="cls-3" transform="translate(1725.4 1914.72)"><tspan x="0" y="0">San Diego</tspan></text>
    <text class="cls-3" transform="translate(1956.64 1897.3)"><tspan x="0" y="0">Imperial</tspan></text>
    <g>
      <line class="cls-10" x1="748.86" y1="958.38" x2="784.58" y2="962.25"/>
      <polygon points="783.31 965.32 789.15 962.74 784 958.97 783.31 965.32"/>
    </g>
    <g>
      <line class="cls-10" x1="778.67" y1="1017.99" x2="821.6" y2="1028.13"/>
      <polygon points="819.96 1031.02 826.07 1029.18 821.42 1024.81 819.96 1031.02"/>
    </g>
    <g>
      <line class="cls-10" x1="812.45" y1="1105.37" x2="860.4" y2="1101.68"/>
      <polygon points="859.71 1104.94 864.98 1101.33 859.23 1098.57 859.71 1104.94"/>
    </g>
    <text class="cls-23" transform="translate(1323.01 1783.07)"><tspan class="cls-9" x="0" y="0">L</tspan><tspan class="cls-34" x="9.59" y="0">ong </tspan><tspan class="cls-19" x="48.91" y="0">B</tspan><tspan class="cls-34" x="60.43" y="0">each</tspan></text>
    <g>
      <line class="cls-10" x1="1431.34" y1="1775.82" x2="1459.9" y2="1765.32"/>
      <polygon points="1460.12 1768.64 1464.21 1763.74 1457.92 1762.65 1460.12 1768.64"/>
    </g>
  </g>
</svg>